<?xml version="1.0" encoding="UTF-8" standalone="no"?>
<svg
   xmlns:dc="http://purl.org/dc/elements/1.1/"
   xmlns:cc="http://creativecommons.org/ns#"
   xmlns:rdf="http://www.w3.org/1999/02/22-rdf-syntax-ns#"
   xmlns:svg="http://www.w3.org/2000/svg"
   xmlns="http://www.w3.org/2000/svg"
   xmlns:sodipodi="http://sodipodi.sourceforge.net/DTD/sodipodi-0.dtd"
   xmlns:inkscape="http://www.inkscape.org/namespaces/inkscape"
   width="335.502mm"
   height="121.752mm"
   viewBox="0.000 0.000 335.502 121.752"
   version="1.1"
   id="svg28"
   sodipodi:docname="plus_bottom_open.svg"
   inkscape:version="1.0.2 (e86c8708, 2021-01-15)">
  <metadata
     id="metadata34">
    <rdf:RDF>
      <cc:Work
         rdf:about="">
        <dc:format>image/svg+xml</dc:format>
        <dc:type
           rdf:resource="http://purl.org/dc/dcmitype/StillImage" />
      </cc:Work>
    </rdf:RDF>
  </metadata>
  <defs
     id="defs32" />
  <sodipodi:namedview
     pagecolor="#ffffff"
     bordercolor="#666666"
     borderopacity="1"
     objecttolerance="10"
     gridtolerance="10"
     guidetolerance="10"
     inkscape:pageopacity="0"
     inkscape:pageshadow="2"
     inkscape:window-width="1680"
     inkscape:window-height="940"
     id="namedview30"
     showgrid="false"
     inkscape:zoom="1.3006939"
     inkscape:cx="342.02996"
     inkscape:cy="236.45855"
     inkscape:window-x="0"
     inkscape:window-y="25"
     inkscape:window-maximized="0"
     inkscape:current-layer="svg28" />
  <polygon
     points="327.502,5.001 327.737,5.010 327.971,5.037 328.202,5.083 328.429,5.147 328.650,5.229 328.863,5.327 329.069,5.443 329.265,5.573 329.450,5.719 329.623,5.879 329.783,6.052 329.929,6.237 330.059,6.433 330.175,6.639 330.273,6.852 330.355,7.073 330.419,7.300 330.465,7.531 330.492,7.765 330.502,8.001 330.502,113.752 330.492,113.987 330.465,114.221 330.419,114.452 330.355,114.679 330.273,114.900 330.175,115.113 330.059,115.319 329.929,115.515 329.783,115.700 329.623,115.873 329.450,116.033 329.265,116.179 329.069,116.309 328.863,116.425 328.650,116.523 328.429,116.605 328.202,116.669 327.971,116.715 327.737,116.742 327.502,116.752 8.001,116.752 7.765,116.742 7.531,116.715 7.300,116.669 7.073,116.605 6.852,116.523 6.639,116.425 6.433,116.309 6.237,116.179 6.052,116.033 5.879,115.873 5.719,115.700 5.573,115.515 5.443,115.319 5.327,115.113 5.229,114.900 5.147,114.679 5.083,114.452 5.037,114.221 5.010,113.987 5.000,113.751 5.001,8.001 5.010,7.765 5.037,7.531 5.083,7.300 5.147,7.073 5.229,6.852 5.327,6.639 5.443,6.433 5.573,6.237 5.719,6.052 5.879,5.879 6.052,5.719 6.237,5.573 6.433,5.443 6.639,5.327 6.852,5.229 7.073,5.147 7.300,5.083 7.531,5.037 7.765,5.010 8.001,5.000"
     style="fill:none;stroke-width:0.050000mm;stroke:black"
     id="polygon10" />
  <polygon
     points="7.661,112.705 7.354,112.862 7.111,113.105 6.954,113.412 6.900,113.752 6.954,114.091 7.111,114.398 7.354,114.641 7.661,114.798 8.000,114.852 8.340,114.798 8.647,114.641 8.890,114.398 9.047,114.091 9.100,113.752 9.047,113.412 8.890,113.105 8.647,112.862 8.340,112.705 8.000,112.652"
     style="fill:none;stroke-width:0.050000mm;stroke:black"
     id="polygon12" />
  <polygon
     points="114.161,112.705 113.854,112.862 113.611,113.105 113.455,113.412 113.401,113.752 113.455,114.091 113.611,114.398 113.854,114.641 114.161,114.798 114.501,114.852 114.841,114.798 115.147,114.641 115.391,114.398 115.547,114.091 115.601,113.752 115.547,113.412 115.391,113.105 115.147,112.862 114.841,112.705 114.501,112.652"
     style="fill:none;stroke-width:0.050000mm;stroke:black"
     id="polygon14" />
  <polygon
     points="220.661,112.705 220.355,112.862 220.111,113.105 219.955,113.412 219.901,113.752 219.955,114.091 220.111,114.398 220.355,114.641 220.661,114.798 221.001,114.852 221.341,114.798 221.648,114.641 221.891,114.398 222.047,114.091 222.101,113.752 222.047,113.412 221.891,113.105 221.648,112.862 221.341,112.705 221.001,112.652"
     style="fill:none;stroke-width:0.050000mm;stroke:black"
     id="polygon16" />
  <polygon
     points="327.162,112.705 326.855,112.862 326.612,113.105 326.455,113.412 326.402,113.752 326.455,114.091 326.612,114.398 326.855,114.641 327.162,114.798 327.502,114.852 327.841,114.798 328.148,114.641 328.391,114.398 328.548,114.091 328.601,113.752 328.548,113.412 328.391,113.105 328.148,112.862 327.841,112.705 327.502,112.652"
     style="fill:none;stroke-width:0.050000mm;stroke:black"
     id="polygon18" />
  <polygon
     points="7.661,6.954 7.354,7.111 7.111,7.354 6.954,7.661 6.900,8.001 6.954,8.340 7.111,8.647 7.354,8.890 7.661,9.047 8.000,9.101 8.340,9.047 8.647,8.890 8.890,8.647 9.047,8.340 9.100,8.001 9.047,7.661 8.890,7.354 8.647,7.111 8.340,6.954 8.000,6.901"
     style="fill:none;stroke-width:0.050000mm;stroke:black"
     id="polygon20" />
  <polygon
     points="327.162,6.954 326.855,7.111 326.612,7.354 326.455,7.661 326.402,8.001 326.455,8.340 326.612,8.647 326.855,8.890 327.162,9.047 327.502,9.101 327.841,9.047 328.148,8.890 328.391,8.647 328.548,8.340 328.601,8.001 328.548,7.661 328.391,7.354 328.148,7.111 327.841,6.954 327.502,6.901"
     style="fill:none;stroke-width:0.050000mm;stroke:black"
     id="polygon22" />
  <polygon
     points="220.661,6.954 220.355,7.111 220.111,7.354 219.955,7.661 219.901,8.001 219.955,8.340 220.111,8.647 220.355,8.890 220.661,9.047 221.001,9.101 221.341,9.047 221.648,8.890 221.891,8.647 222.047,8.340 222.101,8.001 222.047,7.661 221.891,7.354 221.648,7.111 221.341,6.954 221.001,6.901"
     style="fill:none;stroke-width:0.050000mm;stroke:black"
     id="polygon24" />
  <polygon
     points="114.161,6.954 113.854,7.111 113.611,7.354 113.455,7.661 113.401,8.001 113.455,8.340 113.611,8.647 113.854,8.890 114.161,9.047 114.501,9.101 114.841,9.047 115.147,8.890 115.391,8.647 115.547,8.340 115.601,8.001 115.547,7.661 115.391,7.354 115.147,7.111 114.841,6.954 114.501,6.901"
     style="fill:none;stroke-width:0.050000mm;stroke:black"
     id="polygon26" />
  <ellipse
     style="fill:none;stroke:#000000;stroke-width:0.121893;stroke-miterlimit:4;stroke-dasharray:none;stroke-opacity:1"
     id="path36"
     cx="16.445999"
     cy="48.875999"
     rx="1.6890533"
     ry="1.6890534" />
</svg>
