<?xml version="1.0" encoding="UTF-8" standalone="no"?>
<svg
   xmlns:dc="http://purl.org/dc/elements/1.1/"
   xmlns:cc="http://creativecommons.org/ns#"
   xmlns:rdf="http://www.w3.org/1999/02/22-rdf-syntax-ns#"
   xmlns:svg="http://www.w3.org/2000/svg"
   xmlns="http://www.w3.org/2000/svg"
   xmlns:sodipodi="http://sodipodi.sourceforge.net/DTD/sodipodi-0.dtd"
   xmlns:inkscape="http://www.inkscape.org/namespaces/inkscape"
   inkscape:version="1.0 (4035a4f, 2020-05-01)"
   sodipodi:docname="bottom.svg"
   id="svg116"
   version="1.1"
   viewBox="0.000 0.000 335.502 102.752"
   height="102.752mm"
   width="335.502mm">
  <metadata
     id="metadata122">
    <rdf:RDF>
      <cc:Work
         rdf:about="">
        <dc:format>image/svg+xml</dc:format>
        <dc:type
           rdf:resource="http://purl.org/dc/dcmitype/StillImage" />
      </cc:Work>
    </rdf:RDF>
  </metadata>
  <defs
     id="defs120" />
  <sodipodi:namedview
     inkscape:current-layer="svg116"
     inkscape:window-maximized="0"
     inkscape:window-y="25"
     inkscape:window-x="0"
     inkscape:cy="120.5648"
     inkscape:cx="548.54555"
     inkscape:zoom="0.8750489"
     showgrid="false"
     id="namedview118"
     inkscape:window-height="1089"
     inkscape:window-width="1920"
     inkscape:pageshadow="2"
     inkscape:pageopacity="0"
     guidetolerance="10"
     gridtolerance="10"
     objecttolerance="10"
     borderopacity="1"
     bordercolor="#666666"
     pagecolor="#ffffff" />
  <polygon
     id="polygon98"
     style="fill:none;stroke-width:0.1889125;stroke:black;stroke-miterlimit:4;stroke-dasharray:none"
     points="328.502,5.001 328.658,5.007 328.814,5.025 328.968,5.056 329.120,5.098 329.267,5.153 329.409,5.218 329.546,5.295 329.677,5.382 329.800,5.480 329.916,5.586 330.022,5.702 330.120,5.825 330.207,5.956 330.284,6.093 330.349,6.235 330.404,6.382 330.446,6.534 330.477,6.688 330.495,6.844 330.502,7.001 330.502,95.752 330.495,95.908 330.477,96.064 330.446,96.218 330.404,96.370 330.349,96.517 330.284,96.659 330.207,96.796 330.120,96.927 330.022,97.050 329.916,97.166 329.800,97.272 329.677,97.370 329.546,97.457 329.409,97.534 329.267,97.599 329.120,97.654 328.968,97.696 328.814,97.727 328.658,97.745 328.501,97.751 7.001,97.752 6.844,97.745 6.688,97.727 6.534,97.696 6.382,97.654 6.235,97.599 6.093,97.534 5.956,97.457 5.825,97.370 5.702,97.272 5.586,97.166 5.480,97.050 5.382,96.927 5.295,96.796 5.218,96.659 5.153,96.517 5.098,96.370 5.056,96.218 5.025,96.064 5.007,95.908 5.000,95.752 5.001,7.001 5.007,6.844 5.025,6.688 5.056,6.534 5.098,6.382 5.153,6.235 5.218,6.093 5.295,5.956 5.382,5.825 5.480,5.702 5.586,5.586 5.702,5.480 5.825,5.382 5.956,5.295 6.093,5.218 6.235,5.153 6.382,5.098 6.534,5.056 6.688,5.025 6.844,5.007 7.001,5.000" />
  <polygon
     id="polygon100"
     style="fill:none;stroke-width:0.050000mm;stroke:black"
     points="7.753,93.991 7.530,94.104 7.353,94.281 7.240,94.504 7.200,94.752 7.240,94.999 7.353,95.222 7.530,95.399 7.753,95.512 8.000,95.552 8.248,95.512 8.471,95.399 8.648,95.222 8.761,94.999 8.800,94.752 8.761,94.504 8.648,94.281 8.471,94.104 8.248,93.991 8.000,93.952" />
  <polygon
     id="polygon102"
     style="fill:none;stroke-width:0.050000mm;stroke:black"
     points="114.254,93.991 114.031,94.104 113.854,94.281 113.740,94.504 113.701,94.752 113.740,94.999 113.854,95.222 114.031,95.399 114.254,95.512 114.501,95.552 114.748,95.512 114.971,95.399 115.148,95.222 115.262,94.999 115.301,94.752 115.262,94.504 115.148,94.281 114.971,94.104 114.748,93.991 114.501,93.952" />
  <polygon
     id="polygon104"
     style="fill:none;stroke-width:0.050000mm;stroke:black"
     points="220.754,93.991 220.531,94.104 220.354,94.281 220.240,94.504 220.201,94.752 220.240,94.999 220.354,95.222 220.531,95.399 220.754,95.512 221.001,95.552 221.248,95.512 221.471,95.399 221.648,95.222 221.762,94.999 221.801,94.752 221.762,94.504 221.648,94.281 221.471,94.104 221.248,93.991 221.001,93.952" />
  <polygon
     id="polygon106"
     style="fill:none;stroke-width:0.050000mm;stroke:black"
     points="327.254,93.991 327.031,94.104 326.854,94.281 326.741,94.504 326.702,94.752 326.741,94.999 326.854,95.222 327.031,95.399 327.254,95.512 327.502,95.552 327.749,95.512 327.972,95.399 328.149,95.222 328.262,94.999 328.301,94.752 328.262,94.504 328.149,94.281 327.972,94.104 327.749,93.991 327.502,93.952" />
  <polygon
     id="polygon108"
     style="fill:none;stroke-width:0.050000mm;stroke:black"
     points="7.753,7.240 7.530,7.353 7.353,7.530 7.240,7.753 7.200,8.000 7.240,8.248 7.353,8.471 7.530,8.648 7.753,8.761 8.000,8.800 8.248,8.761 8.471,8.648 8.648,8.471 8.761,8.248 8.800,8.001 8.761,7.753 8.648,7.530 8.471,7.353 8.248,7.240 8.000,7.201" />
  <polygon
     id="polygon110"
     style="fill:none;stroke-width:0.050000mm;stroke:black"
     points="327.254,7.240 327.031,7.353 326.854,7.530 326.741,7.753 326.702,8.000 326.741,8.248 326.854,8.471 327.031,8.648 327.254,8.761 327.502,8.800 327.749,8.761 327.972,8.648 328.149,8.471 328.262,8.248 328.301,8.001 328.262,7.753 328.149,7.530 327.972,7.353 327.749,7.240 327.502,7.201" />
  <polygon
     id="polygon112"
     style="fill:none;stroke-width:0.050000mm;stroke:black"
     points="220.754,7.240 220.531,7.353 220.354,7.530 220.240,7.753 220.201,8.000 220.240,8.248 220.354,8.471 220.531,8.648 220.754,8.761 221.001,8.800 221.248,8.761 221.471,8.648 221.648,8.471 221.762,8.248 221.801,8.001 221.762,7.753 221.648,7.530 221.471,7.353 221.248,7.240 221.001,7.201" />
  <polygon
     id="polygon114"
     style="fill:none;stroke-width:0.050000mm;stroke:black"
     points="114.254,7.240 114.031,7.353 113.854,7.530 113.740,7.753 113.701,8.000 113.740,8.248 113.854,8.471 114.031,8.648 114.254,8.761 114.501,8.800 114.748,8.761 114.971,8.648 115.148,8.471 115.262,8.248 115.301,8.001 115.262,7.753 115.148,7.530 114.971,7.353 114.748,7.240 114.501,7.201" />
  <circle
     style="fill:none;stroke:#000000;stroke-width:0.11796;stroke-opacity:1"
     r="1.94102"
     cy="29.875999"
     cx="16.406"
     id="path124" />
</svg>
