<?xml version="1.0"?>
<!-- Generated by SVGo -->
<svg width="335.502mm" height="121.752mm"
     viewBox="0.000 0.000 335.502 121.752"
     xmlns="http://www.w3.org/2000/svg" 
     xmlns:xlink="http://www.w3.org/1999/xlink">
<polygon points="327.502,5.001 327.737,5.010 327.971,5.037 328.202,5.083 328.429,5.147 328.650,5.229 328.863,5.327 329.069,5.443 329.265,5.573 329.450,5.719 329.623,5.879 329.783,6.052 329.929,6.237 330.059,6.433 330.175,6.639 330.273,6.852 330.355,7.073 330.419,7.300 330.465,7.531 330.492,7.765 330.502,8.001 330.502,113.752 330.492,113.987 330.465,114.221 330.419,114.452 330.355,114.679 330.273,114.900 330.175,115.113 330.059,115.319 329.929,115.515 329.783,115.700 329.623,115.873 329.450,116.033 329.265,116.179 329.069,116.309 328.863,116.425 328.650,116.523 328.429,116.605 328.202,116.669 327.971,116.715 327.737,116.742 327.502,116.752 8.001,116.752 7.765,116.742 7.531,116.715 7.300,116.669 7.073,116.605 6.852,116.523 6.639,116.425 6.433,116.309 6.237,116.179 6.052,116.033 5.879,115.873 5.719,115.700 5.573,115.515 5.443,115.319 5.327,115.113 5.229,114.900 5.147,114.679 5.083,114.452 5.037,114.221 5.010,113.987 5.000,113.751 5.001,8.001 5.010,7.765 5.037,7.531 5.083,7.300 5.147,7.073 5.229,6.852 5.327,6.639 5.443,6.433 5.573,6.237 5.719,6.052 5.879,5.879 6.052,5.719 6.237,5.573 6.433,5.443 6.639,5.327 6.852,5.229 7.073,5.147 7.300,5.083 7.531,5.037 7.765,5.010 8.001,5.000" style="fill:none;stroke-width:0.050000mm;stroke:black"/>
<polygon points="7.753,112.991 7.530,113.104 7.353,113.281 7.240,113.504 7.200,113.752 7.240,113.999 7.353,114.222 7.530,114.399 7.753,114.512 8.000,114.552 8.248,114.512 8.471,114.399 8.648,114.222 8.761,113.999 8.800,113.752 8.761,113.504 8.648,113.281 8.471,113.104 8.248,112.991 8.000,112.952" style="fill:none;stroke-width:0.050000mm;stroke:black"/>
<polygon points="114.254,112.991 114.031,113.104 113.854,113.281 113.740,113.504 113.701,113.752 113.740,113.999 113.854,114.222 114.031,114.399 114.254,114.512 114.501,114.552 114.748,114.512 114.971,114.399 115.148,114.222 115.262,113.999 115.301,113.752 115.262,113.504 115.148,113.281 114.971,113.104 114.748,112.991 114.501,112.952" style="fill:none;stroke-width:0.050000mm;stroke:black"/>
<polygon points="220.754,112.991 220.531,113.104 220.354,113.281 220.240,113.504 220.201,113.752 220.240,113.999 220.354,114.222 220.531,114.399 220.754,114.512 221.001,114.552 221.248,114.512 221.471,114.399 221.648,114.222 221.762,113.999 221.801,113.752 221.762,113.504 221.648,113.281 221.471,113.104 221.248,112.991 221.001,112.952" style="fill:none;stroke-width:0.050000mm;stroke:black"/>
<polygon points="327.254,112.991 327.031,113.104 326.854,113.281 326.741,113.504 326.702,113.752 326.741,113.999 326.854,114.222 327.031,114.399 327.254,114.512 327.502,114.552 327.749,114.512 327.972,114.399 328.149,114.222 328.262,113.999 328.301,113.752 328.262,113.504 328.149,113.281 327.972,113.104 327.749,112.991 327.502,112.952" style="fill:none;stroke-width:0.050000mm;stroke:black"/>
<polygon points="7.753,7.240 7.530,7.353 7.353,7.530 7.240,7.753 7.200,8.000 7.240,8.248 7.353,8.471 7.530,8.648 7.753,8.761 8.000,8.800 8.248,8.761 8.471,8.648 8.648,8.471 8.761,8.248 8.800,8.001 8.761,7.753 8.648,7.530 8.471,7.353 8.248,7.240 8.000,7.201" style="fill:none;stroke-width:0.050000mm;stroke:black"/>
<polygon points="327.254,7.240 327.031,7.353 326.854,7.530 326.741,7.753 326.702,8.000 326.741,8.248 326.854,8.471 327.031,8.648 327.254,8.761 327.502,8.800 327.749,8.761 327.972,8.648 328.149,8.471 328.262,8.248 328.301,8.001 328.262,7.753 328.149,7.530 327.972,7.353 327.749,7.240 327.502,7.201" style="fill:none;stroke-width:0.050000mm;stroke:black"/>
<polygon points="220.754,7.240 220.531,7.353 220.354,7.530 220.240,7.753 220.201,8.000 220.240,8.248 220.354,8.471 220.531,8.648 220.754,8.761 221.001,8.800 221.248,8.761 221.471,8.648 221.648,8.471 221.762,8.248 221.801,8.001 221.762,7.753 221.648,7.530 221.471,7.353 221.248,7.240 221.001,7.201" style="fill:none;stroke-width:0.050000mm;stroke:black"/>
<polygon points="114.254,7.240 114.031,7.353 113.854,7.530 113.740,7.753 113.701,8.000 113.740,8.248 113.854,8.471 114.031,8.648 114.254,8.761 114.501,8.800 114.748,8.761 114.971,8.648 115.148,8.471 115.262,8.248 115.301,8.001 115.262,7.753 115.148,7.530 114.971,7.353 114.748,7.240 114.501,7.201" style="fill:none;stroke-width:0.050000mm;stroke:black"/>
</svg>
