<?xml version="1.0" encoding="UTF-8" standalone="no"?>
<svg
   xmlns:dc="http://purl.org/dc/elements/1.1/"
   xmlns:cc="http://creativecommons.org/ns#"
   xmlns:rdf="http://www.w3.org/1999/02/22-rdf-syntax-ns#"
   xmlns:svg="http://www.w3.org/2000/svg"
   xmlns="http://www.w3.org/2000/svg"
   xmlns:sodipodi="http://sodipodi.sourceforge.net/DTD/sodipodi-0.dtd"
   xmlns:inkscape="http://www.inkscape.org/namespaces/inkscape"
   width="335.502mm"
   height="121.752mm"
   viewBox="0.000 0.000 335.502 121.752"
   version="1.1"
   id="svg979"
   sodipodi:docname="plus_switch_2_1u_shift_fixed.svg"
   inkscape:version="1.0.2 (e86c8708, 2021-01-15)">
  <metadata
     id="metadata985">
    <rdf:RDF>
      <cc:Work
         rdf:about="">
        <dc:format>image/svg+xml</dc:format>
        <dc:type
           rdf:resource="http://purl.org/dc/dcmitype/StillImage" />
      </cc:Work>
    </rdf:RDF>
  </metadata>
  <defs
     id="defs983" />
  <sodipodi:namedview
     pagecolor="#ffffff"
     bordercolor="#666666"
     borderopacity="1"
     objecttolerance="10"
     gridtolerance="10"
     guidetolerance="10"
     inkscape:pageopacity="0"
     inkscape:pageshadow="2"
     inkscape:window-width="1680"
     inkscape:window-height="940"
     id="namedview981"
     showgrid="false"
     inkscape:zoom="0.86432665"
     inkscape:cx="634.01955"
     inkscape:cy="230.08252"
     inkscape:window-x="0"
     inkscape:window-y="25"
     inkscape:window-maximized="0"
     inkscape:current-layer="svg979" />
  <polygon
     points="327.502,5.001 327.737,5.010 327.971,5.037 328.202,5.083 328.429,5.147 328.650,5.229 328.863,5.327 329.069,5.443 329.265,5.573 329.450,5.719 329.623,5.879 329.783,6.052 329.929,6.237 330.059,6.433 330.175,6.639 330.273,6.852 330.355,7.073 330.419,7.300 330.465,7.531 330.492,7.765 330.502,8.001 330.502,113.752 330.492,113.987 330.465,114.221 330.419,114.452 330.355,114.679 330.273,114.900 330.175,115.113 330.059,115.319 329.929,115.515 329.783,115.700 329.623,115.873 329.450,116.033 329.265,116.179 329.069,116.309 328.863,116.425 328.650,116.523 328.429,116.605 328.202,116.669 327.971,116.715 327.737,116.742 327.502,116.752 8.001,116.752 7.765,116.742 7.531,116.715 7.300,116.669 7.073,116.605 6.852,116.523 6.639,116.425 6.433,116.309 6.237,116.179 6.052,116.033 5.879,115.873 5.719,115.700 5.573,115.515 5.443,115.319 5.327,115.113 5.229,114.900 5.147,114.679 5.083,114.452 5.037,114.221 5.010,113.987 5.000,113.751 5.001,8.001 5.010,7.765 5.037,7.531 5.083,7.300 5.147,7.073 5.229,6.852 5.327,6.639 5.443,6.433 5.573,6.237 5.719,6.052 5.879,5.879 6.052,5.719 6.237,5.573 6.433,5.443 6.639,5.327 6.852,5.229 7.073,5.147 7.300,5.083 7.531,5.037 7.765,5.010 8.001,5.000"
     style="fill:none;stroke-width:0.050000mm;stroke:black"
     id="polygon815" />
  <polygon
     points="7.661,112.705 7.354,112.862 7.111,113.105 6.954,113.412 6.900,113.752 6.954,114.091 7.111,114.398 7.354,114.641 7.661,114.798 8.000,114.852 8.340,114.798 8.647,114.641 8.890,114.398 9.047,114.091 9.100,113.752 9.047,113.412 8.890,113.105 8.647,112.862 8.340,112.705 8.000,112.652"
     style="fill:none;stroke-width:0.050000mm;stroke:black"
     id="polygon817" />
  <polygon
     points="114.161,112.705 113.854,112.862 113.611,113.105 113.455,113.412 113.401,113.752 113.455,114.091 113.611,114.398 113.854,114.641 114.161,114.798 114.501,114.852 114.841,114.798 115.147,114.641 115.391,114.398 115.547,114.091 115.601,113.752 115.547,113.412 115.391,113.105 115.147,112.862 114.841,112.705 114.501,112.652"
     style="fill:none;stroke-width:0.050000mm;stroke:black"
     id="polygon819" />
  <polygon
     points="220.661,112.705 220.355,112.862 220.111,113.105 219.955,113.412 219.901,113.752 219.955,114.091 220.111,114.398 220.355,114.641 220.661,114.798 221.001,114.852 221.341,114.798 221.648,114.641 221.891,114.398 222.047,114.091 222.101,113.752 222.047,113.412 221.891,113.105 221.648,112.862 221.341,112.705 221.001,112.652"
     style="fill:none;stroke-width:0.050000mm;stroke:black"
     id="polygon821" />
  <polygon
     points="327.162,112.705 326.855,112.862 326.612,113.105 326.455,113.412 326.402,113.752 326.455,114.091 326.612,114.398 326.855,114.641 327.162,114.798 327.502,114.852 327.841,114.798 328.148,114.641 328.391,114.398 328.548,114.091 328.601,113.752 328.548,113.412 328.391,113.105 328.148,112.862 327.841,112.705 327.502,112.652"
     style="fill:none;stroke-width:0.050000mm;stroke:black"
     id="polygon823" />
  <polygon
     points="284.251,94.251 284.251,95.251 283.451,95.251 283.451,98.351 284.251,98.351 284.251,104.151 283.451,104.151 283.451,107.251 284.251,107.251 284.251,108.251 298.251,108.251 298.251,107.251 299.051,107.251 299.051,104.151 298.251,104.151 298.251,98.351 299.051,98.351 299.051,95.251 298.251,95.251 298.251,94.251"
     style="fill:none;stroke-width:0.050000mm;stroke:black"
     id="polygon825" />
  <polygon
     points="265.251,94.251 265.251,95.251 264.451,95.251 264.451,98.351 265.251,98.351 265.251,104.151 264.451,104.151 264.451,107.251 265.251,107.251 265.251,108.251 279.251,108.251 279.251,107.251 280.051,107.251 280.051,104.151 279.251,104.151 279.251,98.351 280.051,98.351 280.051,95.251 279.251,95.251 279.251,94.251"
     style="fill:none;stroke-width:0.050000mm;stroke:black"
     id="polygon827" />
  <polygon
     points="246.251,94.251 246.251,95.251 245.451,95.251 245.451,98.351 246.251,98.351 246.251,104.151 245.451,104.151 245.451,107.251 246.251,107.251 246.251,108.251 260.251,108.251 260.251,107.251 261.051,107.251 261.051,104.151 260.251,104.151 260.251,98.351 261.051,98.351 261.051,95.251 260.251,95.251 260.251,94.251"
     style="fill:none;stroke-width:0.050000mm;stroke:black"
     id="polygon829" />
  <polygon
     points="308.001,89.501 308.001,90.501 307.201,90.501 307.201,93.601 308.001,93.601 308.001,99.401 307.201,99.401 307.201,102.501 308.001,102.501 308.001,103.501 322.001,103.501 322.001,102.501 322.801,102.501 322.801,99.401 322.001,99.401 322.001,93.601 322.801,93.601 322.801,90.501 322.001,90.501 322.001,89.501"
     style="fill:none;stroke-width:0.050000mm;stroke:black"
     id="polygon831" />
  <polygon
     points="222.501,89.501 222.501,90.501 221.701,90.501 221.701,93.601 222.501,93.601 222.501,99.401 221.701,99.401 221.701,102.501 222.501,102.501 222.501,103.501 236.501,103.501 236.501,102.501 237.301,102.501 237.301,99.401 236.501,99.401 236.501,93.601 237.301,93.601 237.301,90.501 236.501,90.501 236.501,89.501"
     style="fill:none;stroke-width:0.050000mm;stroke:black"
     id="polygon833" />
  <polygon
     points="203.501,89.501 203.501,90.501 202.701,90.501 202.701,93.601 203.501,93.601 203.501,99.401 202.701,99.401 202.701,102.501 203.501,102.501 203.501,103.501 217.501,103.501 217.501,102.501 218.301,102.501 218.301,99.401 217.501,99.401 217.501,93.601 218.301,93.601 218.301,90.501 217.501,90.501 217.501,89.501"
     style="fill:none;stroke-width:0.050000mm;stroke:black"
     id="polygon835" />
  <polygon
     points="182.126,89.501 182.126,90.501 181.326,90.501 181.326,93.601 182.126,93.601 182.126,99.401 181.326,99.401 181.326,102.501 182.126,102.501 182.126,103.501 196.126,103.501 196.126,102.501 196.926,102.501 196.926,99.401 196.126,99.401 196.126,93.601 196.926,93.601 196.926,90.501 196.126,90.501 196.126,89.501"
     style="fill:none;stroke-width:0.050000mm;stroke:black"
     id="polygon837" />
  <polygon
     points="160.751,89.501 160.751,90.501 159.951,90.501 159.951,93.601 160.751,93.601 160.751,99.401 159.951,99.401 159.951,102.501 160.751,102.501 160.751,103.501 174.751,103.501 174.751,102.501 175.551,102.501 175.551,99.401 174.751,99.401 174.751,93.601 175.551,93.601 175.551,90.501 174.751,90.501 174.751,89.501"
     style="fill:none;stroke-width:0.050000mm;stroke:black"
     id="polygon839" />
  <polygon
     points="141.751,89.501 141.751,90.501 140.951,90.501 140.951,93.601 141.751,93.601 141.751,99.401 140.951,99.401 140.951,102.501 141.751,102.501 141.751,103.501 155.751,103.501 155.751,102.501 156.551,102.501 156.551,99.401 155.751,99.401 155.751,93.601 156.551,93.601 156.551,90.501 155.751,90.501 155.751,89.501"
     style="fill:none;stroke-width:0.050000mm;stroke:black"
     id="polygon841" />
  <polygon
     points="122.751,89.501 122.751,90.501 121.951,90.501 121.951,93.601 122.751,93.601 122.751,99.401 121.951,99.401 121.951,102.501 122.751,102.501 122.751,103.501 136.751,103.501 136.751,102.501 137.551,102.501 137.551,99.401 136.751,99.401 136.751,93.601 137.551,93.601 137.551,90.501 136.751,90.501 136.751,89.501"
     style="fill:none;stroke-width:0.050000mm;stroke:black"
     id="polygon843" />
  <polygon
     points="103.751,89.501 103.751,90.501 102.951,90.501 102.951,93.601 103.751,93.601 103.751,99.401 102.951,99.401 102.951,102.501 103.751,102.501 103.751,103.501 117.751,103.501 117.751,102.501 118.551,102.501 118.551,99.401 117.751,99.401 117.751,93.601 118.551,93.601 118.551,90.501 117.751,90.501 117.751,89.501"
     style="fill:none;stroke-width:0.050000mm;stroke:black"
     id="polygon845" />
  <polygon
     points="82.376,89.501 82.376,90.501 81.576,90.501 81.576,93.601 82.376,93.601 82.376,99.401 81.576,99.401 81.576,102.501 82.376,102.501 82.376,103.501 96.376,103.501 96.376,102.501 97.176,102.501 97.176,99.401 96.376,99.401 96.376,93.601 97.176,93.601 97.176,90.501 96.376,90.501 96.376,89.501"
     style="fill:none;stroke-width:0.050000mm;stroke:black"
     id="polygon847" />
  <polygon
     points="61.001,89.501 61.001,90.501 60.201,90.501 60.201,93.601 61.001,93.601 61.001,99.401 60.201,99.401 60.201,102.501 61.001,102.501 61.001,103.501 75.001,103.501 75.001,102.501 75.801,102.501 75.801,99.401 75.001,99.401 75.001,93.601 75.801,93.601 75.801,90.501 75.001,90.501 75.001,89.501"
     style="fill:none;stroke-width:0.050000mm;stroke:black"
     id="polygon849" />
  <polygon
     points="42.001,89.501 42.001,90.501 41.201,90.501 41.201,93.601 42.001,93.601 42.001,99.401 41.201,99.401 41.201,102.501 42.001,102.501 42.001,103.501 56.001,103.501 56.001,102.501 56.801,102.501 56.801,99.401 56.001,99.401 56.001,93.601 56.801,93.601 56.801,90.501 56.001,90.501 56.001,89.501"
     style="fill:none;stroke-width:0.050000mm;stroke:black"
     id="polygon851" />
  <polygon
     points="23.001,89.501 23.001,90.501 22.201,90.501 22.201,93.601 23.001,93.601 23.001,99.401 22.201,99.401 22.201,102.501 23.001,102.501 23.001,103.501 37.001,103.501 37.001,102.501 37.801,102.501 37.801,99.401 37.001,99.401 37.001,93.601 37.801,93.601 37.801,90.501 37.001,90.501 37.001,89.501"
     style="fill:none;stroke-width:0.050000mm;stroke:black"
     id="polygon853" />
  <polygon
     points="265.251,75.251 265.251,76.251 264.451,76.251 264.451,79.351 265.251,79.351 265.251,85.151 264.451,85.151 264.451,88.251 265.251,88.251 265.251,89.251 279.251,89.251 279.251,88.251 280.051,88.251 280.051,85.151 279.251,85.151 279.251,79.351 280.051,79.351 280.051,76.251 279.251,76.251 279.251,75.251"
     style="fill:none;stroke-width:0.050000mm;stroke:black"
     id="polygon855" />
  <polygon
     points="308.001,70.501 308.001,71.501 307.201,71.501 307.201,74.601 308.001,74.601 308.001,80.401 307.201,80.401 307.201,83.501 308.001,83.501 308.001,84.501 322.001,84.501 322.001,83.501 322.801,83.501 322.801,80.401 322.001,80.401 322.001,74.601 322.801,74.601 322.801,71.501 322.001,71.501 322.001,70.501"
     style="fill:none;stroke-width:0.050000mm;stroke:black"
     id="polygon857" />
  <polygon
     points="236.751,70.501 236.751,71.501 235.951,71.501 235.951,74.601 236.751,74.601 236.751,80.401 235.951,80.401 235.951,83.501 236.751,83.501 236.751,84.501 250.751,84.501 250.751,83.501 251.551,83.501 251.551,80.401 250.751,80.401 250.751,74.601 251.551,74.601 251.551,71.501 250.751,71.501 250.751,70.501"
     style="fill:none;stroke-width:0.050000mm;stroke:black"
     id="polygon859" />
  <polygon
     points="217.751,70.501 217.751,71.501 216.951,71.501 216.951,74.601 217.751,74.601 217.751,80.401 216.951,80.401 216.951,83.501 217.751,83.501 217.751,84.501 231.751,84.501 231.751,83.501 232.551,83.501 232.551,80.401 231.751,80.401 231.751,74.601 232.551,74.601 232.551,71.501 231.751,71.501 231.751,70.501"
     style="fill:none;stroke-width:0.050000mm;stroke:black"
     id="polygon861" />
  <polygon
     points="198.751,70.501 198.751,71.501 197.951,71.501 197.951,74.601 198.751,74.601 198.751,80.401 197.951,80.401 197.951,83.501 198.751,83.501 198.751,84.501 212.751,84.501 212.751,83.501 213.551,83.501 213.551,80.401 212.751,80.401 212.751,74.601 213.551,74.601 213.551,71.501 212.751,71.501 212.751,70.501"
     style="fill:none;stroke-width:0.050000mm;stroke:black"
     id="polygon863" />
  <polygon
     points="179.751,70.501 179.751,71.501 178.951,71.501 178.951,74.601 179.751,74.601 179.751,80.401 178.951,80.401 178.951,83.501 179.751,83.501 179.751,84.501 193.751,84.501 193.751,83.501 194.551,83.501 194.551,80.401 193.751,80.401 193.751,74.601 194.551,74.601 194.551,71.501 193.751,71.501 193.751,70.501"
     style="fill:none;stroke-width:0.050000mm;stroke:black"
     id="polygon865" />
  <polygon
     points="160.751,70.501 160.751,71.501 159.951,71.501 159.951,74.601 160.751,74.601 160.751,80.401 159.951,80.401 159.951,83.501 160.751,83.501 160.751,84.501 174.751,84.501 174.751,83.501 175.551,83.501 175.551,80.401 174.751,80.401 174.751,74.601 175.551,74.601 175.551,71.501 174.751,71.501 174.751,70.501"
     style="fill:none;stroke-width:0.050000mm;stroke:black"
     id="polygon867" />
  <polygon
     points="141.751,70.501 141.751,71.501 140.951,71.501 140.951,74.601 141.751,74.601 141.751,80.401 140.951,80.401 140.951,83.501 141.751,83.501 141.751,84.501 155.751,84.501 155.751,83.501 156.551,83.501 156.551,80.401 155.751,80.401 155.751,74.601 156.551,74.601 156.551,71.501 155.751,71.501 155.751,70.501"
     style="fill:none;stroke-width:0.050000mm;stroke:black"
     id="polygon869" />
  <polygon
     points="122.751,70.501 122.751,71.501 121.951,71.501 121.951,74.601 122.751,74.601 122.751,80.401 121.951,80.401 121.951,83.501 122.751,83.501 122.751,84.501 136.751,84.501 136.751,83.501 137.551,83.501 137.551,80.401 136.751,80.401 136.751,74.601 137.551,74.601 137.551,71.501 136.751,71.501 136.751,70.501"
     style="fill:none;stroke-width:0.050000mm;stroke:black"
     id="polygon871" />
  <polygon
     points="103.751,70.501 103.751,71.501 102.951,71.501 102.951,74.601 103.751,74.601 103.751,80.401 102.951,80.401 102.951,83.501 103.751,83.501 103.751,84.501 117.751,84.501 117.751,83.501 118.551,83.501 118.551,80.401 117.751,80.401 117.751,74.601 118.551,74.601 118.551,71.501 117.751,71.501 117.751,70.501"
     style="fill:none;stroke-width:0.050000mm;stroke:black"
     id="polygon873" />
  <polygon
     points="84.751,70.501 84.751,71.501 83.951,71.501 83.951,74.601 84.751,74.601 84.751,80.401 83.951,80.401 83.951,83.501 84.751,83.501 84.751,84.501 98.751,84.501 98.751,83.501 99.551,83.501 99.551,80.401 98.751,80.401 98.751,74.601 99.551,74.601 99.551,71.501 98.751,71.501 98.751,70.501"
     style="fill:none;stroke-width:0.050000mm;stroke:black"
     id="polygon875" />
  <polygon
     points="65.751,70.501 65.751,71.501 64.951,71.501 64.951,74.601 65.751,74.601 65.751,80.401 64.951,80.401 64.951,83.501 65.751,83.501 65.751,84.501 79.751,84.501 79.751,83.501 80.551,83.501 80.551,80.401 79.751,80.401 79.751,74.601 80.551,74.601 80.551,71.501 79.751,71.501 79.751,70.501"
     style="fill:none;stroke-width:0.050000mm;stroke:black"
     id="polygon877" />
  <polygon
     points="46.751,70.501 46.751,71.501 45.951,71.501 45.951,74.601 46.751,74.601 46.751,80.401 45.951,80.401 45.951,83.501 46.751,83.501 46.751,84.501 60.751,84.501 60.751,83.501 61.551,83.501 61.551,80.401 60.751,80.401 60.751,74.601 61.551,74.601 61.551,71.501 60.751,71.501 60.751,70.501"
     style="fill:none;stroke-width:0.050000mm;stroke:black"
     id="polygon879" />
  <polygon
     points="20.626,70.501 20.626,71.501 19.826,71.501 19.826,74.601 20.626,74.601 20.626,80.401 19.826,80.401 19.826,83.501 20.626,83.501 20.626,84.501 34.626,84.501 34.626,83.501 35.426,83.501 35.426,80.401 34.626,80.401 34.626,74.601 35.426,74.601 35.426,71.501 34.626,71.501 34.626,70.501"
     style="fill:none;stroke-width:0.050000mm;stroke:black"
     id="polygon881" />
  <polygon
     points="308.001,51.501 308.001,52.501 307.201,52.501 307.201,55.601 308.001,55.601 308.001,61.401 307.201,61.401 307.201,64.501 308.001,64.501 308.001,65.501 322.001,65.501 322.001,64.501 322.801,64.501 322.801,61.401 322.001,61.401 322.001,55.601 322.801,55.601 322.801,52.501 322.001,52.501 322.001,51.501"
     style="fill:none;stroke-width:0.050000mm;stroke:black"
     id="polygon883" />
  <polygon
     points="262.876,51.501 262.876,52.501 262.076,52.501 262.076,55.601 262.876,55.601 262.876,61.401 262.076,61.401 262.076,64.501 262.876,64.501 262.876,65.501 276.876,65.501 276.876,64.501 277.676,64.501 277.676,61.401 276.876,61.401 276.876,55.601 277.676,55.601 277.676,52.501 276.876,52.501 276.876,51.501"
     style="fill:none;stroke-width:0.050000mm;stroke:black"
     id="polygon885" />
  <polygon
     points="236.751,51.501 236.751,52.501 235.951,52.501 235.951,55.601 236.751,55.601 236.751,61.401 235.951,61.401 235.951,64.501 236.751,64.501 236.751,65.501 250.751,65.501 250.751,64.501 251.551,64.501 251.551,61.401 250.751,61.401 250.751,55.601 251.551,55.601 251.551,52.501 250.751,52.501 250.751,51.501"
     style="fill:none;stroke-width:0.050000mm;stroke:black"
     id="polygon887" />
  <polygon
     points="217.751,51.501 217.751,52.501 216.951,52.501 216.951,55.601 217.751,55.601 217.751,61.401 216.951,61.401 216.951,64.501 217.751,64.501 217.751,65.501 231.751,65.501 231.751,64.501 232.551,64.501 232.551,61.401 231.751,61.401 231.751,55.601 232.551,55.601 232.551,52.501 231.751,52.501 231.751,51.501"
     style="fill:none;stroke-width:0.050000mm;stroke:black"
     id="polygon889" />
  <polygon
     points="198.751,51.501 198.751,52.501 197.951,52.501 197.951,55.601 198.751,55.601 198.751,61.401 197.951,61.401 197.951,64.501 198.751,64.501 198.751,65.501 212.751,65.501 212.751,64.501 213.551,64.501 213.551,61.401 212.751,61.401 212.751,55.601 213.551,55.601 213.551,52.501 212.751,52.501 212.751,51.501"
     style="fill:none;stroke-width:0.050000mm;stroke:black"
     id="polygon891" />
  <polygon
     points="179.751,51.501 179.751,52.501 178.951,52.501 178.951,55.601 179.751,55.601 179.751,61.401 178.951,61.401 178.951,64.501 179.751,64.501 179.751,65.501 193.751,65.501 193.751,64.501 194.551,64.501 194.551,61.401 193.751,61.401 193.751,55.601 194.551,55.601 194.551,52.501 193.751,52.501 193.751,51.501"
     style="fill:none;stroke-width:0.050000mm;stroke:black"
     id="polygon893" />
  <polygon
     points="160.751,51.501 160.751,52.501 159.951,52.501 159.951,55.601 160.751,55.601 160.751,61.401 159.951,61.401 159.951,64.501 160.751,64.501 160.751,65.501 174.751,65.501 174.751,64.501 175.551,64.501 175.551,61.401 174.751,61.401 174.751,55.601 175.551,55.601 175.551,52.501 174.751,52.501 174.751,51.501"
     style="fill:none;stroke-width:0.050000mm;stroke:black"
     id="polygon895" />
  <polygon
     points="141.751,51.501 141.751,52.501 140.951,52.501 140.951,55.601 141.751,55.601 141.751,61.401 140.951,61.401 140.951,64.501 141.751,64.501 141.751,65.501 155.751,65.501 155.751,64.501 156.551,64.501 156.551,61.401 155.751,61.401 155.751,55.601 156.551,55.601 156.551,52.501 155.751,52.501 155.751,51.501"
     style="fill:none;stroke-width:0.050000mm;stroke:black"
     id="polygon897" />
  <polygon
     points="122.751,51.501 122.751,52.501 121.951,52.501 121.951,55.601 122.751,55.601 122.751,61.401 121.951,61.401 121.951,64.501 122.751,64.501 122.751,65.501 136.751,65.501 136.751,64.501 137.551,64.501 137.551,61.401 136.751,61.401 136.751,55.601 137.551,55.601 137.551,52.501 136.751,52.501 136.751,51.501"
     style="fill:none;stroke-width:0.050000mm;stroke:black"
     id="polygon899" />
  <polygon
     points="103.751,51.501 103.751,52.501 102.951,52.501 102.951,55.601 103.751,55.601 103.751,61.401 102.951,61.401 102.951,64.501 103.751,64.501 103.751,65.501 117.751,65.501 117.751,64.501 118.551,64.501 118.551,61.401 117.751,61.401 117.751,55.601 118.551,55.601 118.551,52.501 117.751,52.501 117.751,51.501"
     style="fill:none;stroke-width:0.050000mm;stroke:black"
     id="polygon901" />
  <polygon
     points="84.751,51.501 84.751,52.501 83.951,52.501 83.951,55.601 84.751,55.601 84.751,61.401 83.951,61.401 83.951,64.501 84.751,64.501 84.751,65.501 98.751,65.501 98.751,64.501 99.551,64.501 99.551,61.401 98.751,61.401 98.751,55.601 99.551,55.601 99.551,52.501 98.751,52.501 98.751,51.501"
     style="fill:none;stroke-width:0.050000mm;stroke:black"
     id="polygon903" />
  <polygon
     points="65.751,51.501 65.751,52.501 64.951,52.501 64.951,55.601 65.751,55.601 65.751,61.401 64.951,61.401 64.951,64.501 65.751,64.501 65.751,65.501 79.751,65.501 79.751,64.501 80.551,64.501 80.551,61.401 79.751,61.401 79.751,55.601 80.551,55.601 80.551,52.501 79.751,52.501 79.751,51.501"
     style="fill:none;stroke-width:0.050000mm;stroke:black"
     id="polygon905" />
  <polygon
     points="46.751,51.501 46.751,52.501 45.951,52.501 45.951,55.601 46.751,55.601 46.751,61.401 45.951,61.401 45.951,64.501 46.751,64.501 46.751,65.501 60.751,65.501 60.751,64.501 61.551,64.501 61.551,61.401 60.751,61.401 60.751,55.601 61.551,55.601 61.551,52.501 60.751,52.501 60.751,51.501"
     style="fill:none;stroke-width:0.050000mm;stroke:black"
     id="polygon907" />
  <polygon
     points="20.626,51.501 20.626,52.501 19.826,52.501 19.826,55.601 20.626,55.601 20.626,61.401 19.826,61.401 19.826,64.501 20.626,64.501 20.626,65.501 34.626,65.501 34.626,64.501 35.426,64.501 35.426,61.401 34.626,61.401 34.626,55.601 35.426,55.601 35.426,52.501 34.626,52.501 34.626,51.501"
     style="fill:none;stroke-width:0.050000mm;stroke:black"
     id="polygon909" />
  <polygon
     points="308.001,32.501 308.001,33.501 307.201,33.501 307.201,36.601 308.001,36.601 308.001,42.401 307.201,42.401 307.201,45.501 308.001,45.501 308.001,46.501 322.001,46.501 322.001,45.501 322.801,45.501 322.801,42.401 322.001,42.401 322.001,36.601 322.801,36.601 322.801,33.501 322.001,33.501 322.001,32.501"
     style="fill:none;stroke-width:0.050000mm;stroke:black"
     id="polygon911" />
  <polygon
     points="279.501,32.501 279.501,33.501 278.701,33.501 278.701,36.601 279.501,36.601 279.501,42.401 278.701,42.401 278.701,45.501 279.501,45.501 279.501,46.501 293.501,46.501 293.501,45.501 294.301,45.501 294.301,42.401 293.501,42.401 293.501,36.601 294.301,36.601 294.301,33.501 293.501,33.501 293.501,32.501"
     style="fill:none;stroke-width:0.050000mm;stroke:black"
     id="polygon913" />
  <polygon
     points="255.751,32.501 255.751,33.501 254.951,33.501 254.951,36.601 255.751,36.601 255.751,42.401 254.951,42.401 254.951,45.501 255.751,45.501 255.751,46.501 269.751,46.501 269.751,45.501 270.551,45.501 270.551,42.401 269.751,42.401 269.751,36.601 270.551,36.601 270.551,33.501 269.751,33.501 269.751,32.501"
     style="fill:none;stroke-width:0.050000mm;stroke:black"
     id="polygon915" />
  <polygon
     points="236.751,32.501 236.751,33.501 235.951,33.501 235.951,36.601 236.751,36.601 236.751,42.401 235.951,42.401 235.951,45.501 236.751,45.501 236.751,46.501 250.751,46.501 250.751,45.501 251.551,45.501 251.551,42.401 250.751,42.401 250.751,36.601 251.551,36.601 251.551,33.501 250.751,33.501 250.751,32.501"
     style="fill:none;stroke-width:0.050000mm;stroke:black"
     id="polygon917" />
  <polygon
     points="217.751,32.501 217.751,33.501 216.951,33.501 216.951,36.601 217.751,36.601 217.751,42.401 216.951,42.401 216.951,45.501 217.751,45.501 217.751,46.501 231.751,46.501 231.751,45.501 232.551,45.501 232.551,42.401 231.751,42.401 231.751,36.601 232.551,36.601 232.551,33.501 231.751,33.501 231.751,32.501"
     style="fill:none;stroke-width:0.050000mm;stroke:black"
     id="polygon919" />
  <polygon
     points="198.751,32.501 198.751,33.501 197.951,33.501 197.951,36.601 198.751,36.601 198.751,42.401 197.951,42.401 197.951,45.501 198.751,45.501 198.751,46.501 212.751,46.501 212.751,45.501 213.551,45.501 213.551,42.401 212.751,42.401 212.751,36.601 213.551,36.601 213.551,33.501 212.751,33.501 212.751,32.501"
     style="fill:none;stroke-width:0.050000mm;stroke:black"
     id="polygon921" />
  <polygon
     points="179.751,32.501 179.751,33.501 178.951,33.501 178.951,36.601 179.751,36.601 179.751,42.401 178.951,42.401 178.951,45.501 179.751,45.501 179.751,46.501 193.751,46.501 193.751,45.501 194.551,45.501 194.551,42.401 193.751,42.401 193.751,36.601 194.551,36.601 194.551,33.501 193.751,33.501 193.751,32.501"
     style="fill:none;stroke-width:0.050000mm;stroke:black"
     id="polygon923" />
  <polygon
     points="160.751,32.501 160.751,33.501 159.951,33.501 159.951,36.601 160.751,36.601 160.751,42.401 159.951,42.401 159.951,45.501 160.751,45.501 160.751,46.501 174.751,46.501 174.751,45.501 175.551,45.501 175.551,42.401 174.751,42.401 174.751,36.601 175.551,36.601 175.551,33.501 174.751,33.501 174.751,32.501"
     style="fill:none;stroke-width:0.050000mm;stroke:black"
     id="polygon925" />
  <polygon
     points="141.751,32.501 141.751,33.501 140.951,33.501 140.951,36.601 141.751,36.601 141.751,42.401 140.951,42.401 140.951,45.501 141.751,45.501 141.751,46.501 155.751,46.501 155.751,45.501 156.551,45.501 156.551,42.401 155.751,42.401 155.751,36.601 156.551,36.601 156.551,33.501 155.751,33.501 155.751,32.501"
     style="fill:none;stroke-width:0.050000mm;stroke:black"
     id="polygon927" />
  <polygon
     points="122.751,32.501 122.751,33.501 121.951,33.501 121.951,36.601 122.751,36.601 122.751,42.401 121.951,42.401 121.951,45.501 122.751,45.501 122.751,46.501 136.751,46.501 136.751,45.501 137.551,45.501 137.551,42.401 136.751,42.401 136.751,36.601 137.551,36.601 137.551,33.501 136.751,33.501 136.751,32.501"
     style="fill:none;stroke-width:0.050000mm;stroke:black"
     id="polygon929" />
  <polygon
     points="103.751,32.501 103.751,33.501 102.951,33.501 102.951,36.601 103.751,36.601 103.751,42.401 102.951,42.401 102.951,45.501 103.751,45.501 103.751,46.501 117.751,46.501 117.751,45.501 118.551,45.501 118.551,42.401 117.751,42.401 117.751,36.601 118.551,36.601 118.551,33.501 117.751,33.501 117.751,32.501"
     style="fill:none;stroke-width:0.050000mm;stroke:black"
     id="polygon931" />
  <polygon
     points="84.751,32.501 84.751,33.501 83.951,33.501 83.951,36.601 84.751,36.601 84.751,42.401 83.951,42.401 83.951,45.501 84.751,45.501 84.751,46.501 98.751,46.501 98.751,45.501 99.551,45.501 99.551,42.401 98.751,42.401 98.751,36.601 99.551,36.601 99.551,33.501 98.751,33.501 98.751,32.501"
     style="fill:none;stroke-width:0.050000mm;stroke:black"
     id="polygon933" />
  <polygon
     points="65.751,32.501 65.751,33.501 64.951,33.501 64.951,36.601 65.751,36.601 65.751,42.401 64.951,42.401 64.951,45.501 65.751,45.501 65.751,46.501 79.751,46.501 79.751,45.501 80.551,45.501 80.551,42.401 79.751,42.401 79.751,36.601 80.551,36.601 80.551,33.501 79.751,33.501 79.751,32.501"
     style="fill:none;stroke-width:0.050000mm;stroke:black"
     id="polygon935" />
  <polygon
     points="46.751,32.501 46.751,33.501 45.951,33.501 45.951,36.601 46.751,36.601 46.751,42.401 45.951,42.401 45.951,45.501 46.751,45.501 46.751,46.501 60.751,46.501 60.751,45.501 61.551,45.501 61.551,42.401 60.751,42.401 60.751,36.601 61.551,36.601 61.551,33.501 60.751,33.501 60.751,32.501"
     style="fill:none;stroke-width:0.050000mm;stroke:black"
     id="polygon937" />
  <polygon
     points="23.001,32.501 23.001,33.501 22.201,33.501 22.201,36.601 23.001,36.601 23.001,42.401 22.201,42.401 22.201,45.501 23.001,45.501 23.001,46.501 37.001,46.501 37.001,45.501 37.801,45.501 37.801,42.401 37.001,42.401 37.001,36.601 37.801,36.601 37.801,33.501 37.001,33.501 37.001,32.501"
     style="fill:none;stroke-width:0.050000mm;stroke:black"
     id="polygon939" />
  <polygon
     points="308.001,13.501 308.001,14.501 307.201,14.501 307.201,17.601 308.001,17.601 308.001,23.401 307.201,23.401 307.201,26.501 308.001,26.501 308.001,27.501 322.001,27.501 322.001,26.501 322.801,26.501 322.801,23.401 322.001,23.401 322.001,17.601 322.801,17.601 322.801,14.501 322.001,14.501 322.001,13.501"
     style="fill:none;stroke-width:0.050000mm;stroke:black"
     id="polygon941" />
  <polygon
     points="279.501,13.501 279.501,14.501 278.701,14.501 278.701,17.601 279.501,17.601 279.501,23.401 278.701,23.401 278.701,26.501 279.501,26.501 279.501,27.501 293.501,27.501 293.501,26.501 294.301,26.501 294.301,23.401 293.501,23.401 293.501,17.601 294.301,17.601 294.301,14.501 293.501,14.501 293.501,13.501"
     style="fill:none;stroke-width:0.050000mm;stroke:black"
     id="polygon943" />
  <polygon
     points="255.751,13.501 255.751,14.501 254.951,14.501 254.951,17.601 255.751,17.601 255.751,23.401 254.951,23.401 254.951,26.501 255.751,26.501 255.751,27.501 269.751,27.501 269.751,26.501 270.551,26.501 270.551,23.401 269.751,23.401 269.751,17.601 270.551,17.601 270.551,14.501 269.751,14.501 269.751,13.501"
     style="fill:none;stroke-width:0.050000mm;stroke:black"
     id="polygon945" />
  <polygon
     points="236.751,13.501 236.751,14.501 235.951,14.501 235.951,17.601 236.751,17.601 236.751,23.401 235.951,23.401 235.951,26.501 236.751,26.501 236.751,27.501 250.751,27.501 250.751,26.501 251.551,26.501 251.551,23.401 250.751,23.401 250.751,17.601 251.551,17.601 251.551,14.501 250.751,14.501 250.751,13.501"
     style="fill:none;stroke-width:0.050000mm;stroke:black"
     id="polygon947" />
  <polygon
     points="217.751,13.501 217.751,14.501 216.951,14.501 216.951,17.601 217.751,17.601 217.751,23.401 216.951,23.401 216.951,26.501 217.751,26.501 217.751,27.501 231.751,27.501 231.751,26.501 232.551,26.501 232.551,23.401 231.751,23.401 231.751,17.601 232.551,17.601 232.551,14.501 231.751,14.501 231.751,13.501"
     style="fill:none;stroke-width:0.050000mm;stroke:black"
     id="polygon949" />
  <polygon
     points="198.751,13.501 198.751,14.501 197.951,14.501 197.951,17.601 198.751,17.601 198.751,23.401 197.951,23.401 197.951,26.501 198.751,26.501 198.751,27.501 212.751,27.501 212.751,26.501 213.551,26.501 213.551,23.401 212.751,23.401 212.751,17.601 213.551,17.601 213.551,14.501 212.751,14.501 212.751,13.501"
     style="fill:none;stroke-width:0.050000mm;stroke:black"
     id="polygon951" />
  <polygon
     points="179.751,13.501 179.751,14.501 178.951,14.501 178.951,17.601 179.751,17.601 179.751,23.401 178.951,23.401 178.951,26.501 179.751,26.501 179.751,27.501 193.751,27.501 193.751,26.501 194.551,26.501 194.551,23.401 193.751,23.401 193.751,17.601 194.551,17.601 194.551,14.501 193.751,14.501 193.751,13.501"
     style="fill:none;stroke-width:0.050000mm;stroke:black"
     id="polygon953" />
  <polygon
     points="160.751,13.501 160.751,14.501 159.951,14.501 159.951,17.601 160.751,17.601 160.751,23.401 159.951,23.401 159.951,26.501 160.751,26.501 160.751,27.501 174.751,27.501 174.751,26.501 175.551,26.501 175.551,23.401 174.751,23.401 174.751,17.601 175.551,17.601 175.551,14.501 174.751,14.501 174.751,13.501"
     style="fill:none;stroke-width:0.050000mm;stroke:black"
     id="polygon955" />
  <polygon
     points="141.751,13.501 141.751,14.501 140.951,14.501 140.951,17.601 141.751,17.601 141.751,23.401 140.951,23.401 140.951,26.501 141.751,26.501 141.751,27.501 155.751,27.501 155.751,26.501 156.551,26.501 156.551,23.401 155.751,23.401 155.751,17.601 156.551,17.601 156.551,14.501 155.751,14.501 155.751,13.501"
     style="fill:none;stroke-width:0.050000mm;stroke:black"
     id="polygon957" />
  <polygon
     points="122.751,13.501 122.751,14.501 121.951,14.501 121.951,17.601 122.751,17.601 122.751,23.401 121.951,23.401 121.951,26.501 122.751,26.501 122.751,27.501 136.751,27.501 136.751,26.501 137.551,26.501 137.551,23.401 136.751,23.401 136.751,17.601 137.551,17.601 137.551,14.501 136.751,14.501 136.751,13.501"
     style="fill:none;stroke-width:0.050000mm;stroke:black"
     id="polygon959" />
  <polygon
     points="103.751,13.501 103.751,14.501 102.951,14.501 102.951,17.601 103.751,17.601 103.751,23.401 102.951,23.401 102.951,26.501 103.751,26.501 103.751,27.501 117.751,27.501 117.751,26.501 118.551,26.501 118.551,23.401 117.751,23.401 117.751,17.601 118.551,17.601 118.551,14.501 117.751,14.501 117.751,13.501"
     style="fill:none;stroke-width:0.050000mm;stroke:black"
     id="polygon961" />
  <polygon
     points="84.751,13.501 84.751,14.501 83.951,14.501 83.951,17.601 84.751,17.601 84.751,23.401 83.951,23.401 83.951,26.501 84.751,26.501 84.751,27.501 98.751,27.501 98.751,26.501 99.551,26.501 99.551,23.401 98.751,23.401 98.751,17.601 99.551,17.601 99.551,14.501 98.751,14.501 98.751,13.501"
     style="fill:none;stroke-width:0.050000mm;stroke:black"
     id="polygon963" />
  <polygon
     points="65.751,13.501 65.751,14.501 64.951,14.501 64.951,17.601 65.751,17.601 65.751,23.401 64.951,23.401 64.951,26.501 65.751,26.501 65.751,27.501 79.751,27.501 79.751,26.501 80.551,26.501 80.551,23.401 79.751,23.401 79.751,17.601 80.551,17.601 80.551,14.501 79.751,14.501 79.751,13.501"
     style="fill:none;stroke-width:0.050000mm;stroke:black"
     id="polygon965" />
  <polygon
     points="46.751,13.501 46.751,14.501 45.951,14.501 45.951,17.601 46.751,17.601 46.751,23.401 45.951,23.401 45.951,26.501 46.751,26.501 46.751,27.501 60.751,27.501 60.751,26.501 61.551,26.501 61.551,23.401 60.751,23.401 60.751,17.601 61.551,17.601 61.551,14.501 60.751,14.501 60.751,13.501"
     style="fill:none;stroke-width:0.050000mm;stroke:black"
     id="polygon967" />
  <polygon
     points="27.751,13.501 27.751,14.501 26.951,14.501 26.951,17.601 27.751,17.601 27.751,23.401 26.951,23.401 26.951,26.501 27.751,26.501 27.751,27.501 41.751,27.501 41.751,26.501 42.551,26.501 42.551,23.401 41.751,23.401 41.751,17.601 42.551,17.601 42.551,14.501 41.751,14.501 41.751,13.501"
     style="fill:none;stroke-width:0.050000mm;stroke:black"
     id="polygon969" />
  <polygon
     points="7.661,6.954 7.354,7.111 7.111,7.354 6.954,7.661 6.900,8.001 6.954,8.340 7.111,8.647 7.354,8.890 7.661,9.047 8.000,9.101 8.340,9.047 8.647,8.890 8.890,8.647 9.047,8.340 9.100,8.001 9.047,7.661 8.890,7.354 8.647,7.111 8.340,6.954 8.000,6.901"
     style="fill:none;stroke-width:0.050000mm;stroke:black"
     id="polygon971" />
  <polygon
     points="327.162,6.954 326.855,7.111 326.612,7.354 326.455,7.661 326.402,8.001 326.455,8.340 326.612,8.647 326.855,8.890 327.162,9.047 327.502,9.101 327.841,9.047 328.148,8.890 328.391,8.647 328.548,8.340 328.601,8.001 328.548,7.661 328.391,7.354 328.148,7.111 327.841,6.954 327.502,6.901"
     style="fill:none;stroke-width:0.050000mm;stroke:black"
     id="polygon973" />
  <polygon
     points="220.661,6.954 220.355,7.111 220.111,7.354 219.955,7.661 219.901,8.001 219.955,8.340 220.111,8.647 220.355,8.890 220.661,9.047 221.001,9.101 221.341,9.047 221.648,8.890 221.891,8.647 222.047,8.340 222.101,8.001 222.047,7.661 221.891,7.354 221.648,7.111 221.341,6.954 221.001,6.901"
     style="fill:none;stroke-width:0.050000mm;stroke:black"
     id="polygon975" />
  <polygon
     points="114.161,6.954 113.854,7.111 113.611,7.354 113.455,7.661 113.401,8.001 113.455,8.340 113.611,8.647 113.854,8.890 114.161,9.047 114.501,9.101 114.841,9.047 115.147,8.890 115.391,8.647 115.547,8.340 115.601,8.001 115.547,7.661 115.391,7.354 115.147,7.111 114.841,6.954 114.501,6.901"
     style="fill:none;stroke-width:0.050000mm;stroke:black"
     id="polygon977" />
  <path
     id="polygon873-9"
     style="fill:none;stroke:#000000;stroke-width:0.0435164mm"
     d="m 287.70223,73.695236 v 12.03553 h 12.33553 v -12.03553 z" />
</svg>
