<?xml version="1.0" encoding="UTF-8" standalone="no"?>
<svg
   xmlns:dc="http://purl.org/dc/elements/1.1/"
   xmlns:cc="http://creativecommons.org/ns#"
   xmlns:rdf="http://www.w3.org/1999/02/22-rdf-syntax-ns#"
   xmlns:svg="http://www.w3.org/2000/svg"
   xmlns="http://www.w3.org/2000/svg"
   xmlns:sodipodi="http://sodipodi.sourceforge.net/DTD/sodipodi-0.dtd"
   xmlns:inkscape="http://www.inkscape.org/namespaces/inkscape"
   width="331.502mm"
   height="102.752mm"
   viewBox="0.000 0.000 331.502 102.752"
   version="1.1"
   id="svg7036"
   sodipodi:docname="top.svg"
   inkscape:version="1.0.2 (e86c8708, 2021-01-15)">
  <metadata
     id="metadata7042">
    <rdf:RDF>
      <cc:Work
         rdf:about="">
        <dc:format>image/svg+xml</dc:format>
        <dc:type
           rdf:resource="http://purl.org/dc/dcmitype/StillImage" />
        <dc:title></dc:title>
      </cc:Work>
    </rdf:RDF>
  </metadata>
  <defs
     id="defs7040" />
  <sodipodi:namedview
     pagecolor="#ffffff"
     bordercolor="#666666"
     borderopacity="1"
     objecttolerance="10"
     gridtolerance="10"
     guidetolerance="10"
     inkscape:pageopacity="0"
     inkscape:pageshadow="2"
     inkscape:window-width="1680"
     inkscape:window-height="936"
     id="namedview7038"
     showgrid="false"
     inkscape:document-units="mm"
     inkscape:zoom="0.87475587"
     inkscape:cx="626.4605"
     inkscape:cy="194.17701"
     inkscape:window-x="0"
     inkscape:window-y="25"
     inkscape:window-maximized="0"
     inkscape:current-layer="svg7036" />
  <polygon
     points="324.002,5.001 324.198,5.008 324.393,5.031 324.585,5.070 324.774,5.123 324.958,5.191 325.136,5.273 325.308,5.369 325.471,5.478 325.625,5.599 325.769,5.733 325.903,5.877 326.024,6.031 326.133,6.194 326.229,6.366 326.311,6.544 326.379,6.728 326.432,6.917 326.471,7.109 326.494,7.304 326.502,7.501 326.502,95.252 326.494,95.448 326.471,95.643 326.432,95.835 326.379,96.024 326.311,96.208 326.229,96.386 326.133,96.558 326.024,96.721 325.903,96.875 325.769,97.019 325.625,97.153 325.471,97.274 325.308,97.383 325.136,97.479 324.958,97.561 324.774,97.629 324.585,97.682 324.393,97.721 324.198,97.744 324.001,97.752 7.501,97.752 7.304,97.744 7.109,97.721 6.917,97.682 6.728,97.629 6.544,97.561 6.366,97.479 6.194,97.383 6.031,97.274 5.877,97.153 5.733,97.019 5.599,96.875 5.478,96.721 5.369,96.558 5.273,96.386 5.191,96.208 5.123,96.024 5.070,95.835 5.031,95.643 5.008,95.448 5.000,95.251 5.001,7.501 5.008,7.304 5.031,7.109 5.070,6.917 5.123,6.728 5.191,6.544 5.273,6.366 5.369,6.194 5.478,6.031 5.599,5.877 5.733,5.733 5.877,5.599 6.031,5.478 6.194,5.369 6.366,5.273 6.544,5.191 6.728,5.123 6.917,5.070 7.109,5.031 7.304,5.008 7.501,5.000"
     style="fill:none;stroke-width:0.050000mm;stroke:black"
     id="polygon7012" />
  <polygon
     points="323.162,93.705 322.855,93.862 322.612,94.105 322.455,94.412 322.402,94.752 322.455,95.091 322.612,95.398 322.855,95.641 323.162,95.798 323.502,95.852 323.841,95.798 324.148,95.641 324.391,95.398 324.548,95.091 324.601,94.752 324.548,94.412 324.391,94.105 324.148,93.862 323.841,93.705 323.502,93.652"
     style="fill:none;stroke-width:0.050000mm;stroke:black"
     id="polygon7014" />
  <polygon
     points="217.995,93.705 217.688,93.862 217.445,94.105 217.288,94.412 217.234,94.752 217.288,95.091 217.445,95.398 217.688,95.641 217.995,95.798 218.334,95.852 218.674,95.798 218.981,95.641 219.224,95.398 219.381,95.091 219.434,94.752 219.381,94.412 219.224,94.105 218.981,93.862 218.674,93.705 218.334,93.652"
     style="fill:none;stroke-width:0.050000mm;stroke:black"
     id="polygon7016" />
  <polygon
     points="112.828,93.705 112.521,93.862 112.278,94.105 112.121,94.412 112.067,94.752 112.121,95.091 112.278,95.398 112.521,95.641 112.828,95.798 113.167,95.852 113.507,95.798 113.814,95.641 114.057,95.398 114.214,95.091 114.268,94.752 114.214,94.412 114.057,94.105 113.814,93.862 113.507,93.705 113.167,93.652"
     style="fill:none;stroke-width:0.050000mm;stroke:black"
     id="polygon7018" />
  <polygon
     points="7.661,93.705 7.354,93.862 7.111,94.105 6.954,94.412 6.901,94.752 6.954,95.091 7.111,95.398 7.354,95.641 7.661,95.798 8.001,95.852 8.340,95.798 8.647,95.641 8.890,95.398 9.047,95.091 9.101,94.752 9.047,94.412 8.890,94.105 8.647,93.862 8.340,93.705 8.001,93.652"
     style="fill:none;stroke-width:0.050000mm;stroke:black"
     id="polygon7020" />
  <polygon
     points="260.750,53.750 260.750,72.750 241.750,72.750 241.750,91.752 298.752,91.752 298.752,72.750 279.752,72.750 279.752,53.750"
     style="fill:none;stroke-width:0.050000mm;stroke:black"
     id="polygon7022" />
  <polygon
     points="303.500,11.000 303.500,87.002 322.502,87.002 322.502,11.000"
     style="fill:none;stroke-width:0.050000mm;stroke:black"
     id="polygon7024" />
  <polygon
     points="13.750,11.000 13.750,30.000 8.999,30.000 8.999,68.002 18.500,68.002 18.500,87.002 237.002,87.002 237.002,68.002 256.001,68.002 256.001,49.002 284.502,49.002 284.502,30.001 298.752,30.001 298.752,11.000"
     style="fill:none;stroke-width:0.1889125;stroke:black;stroke-miterlimit:4;stroke-dasharray:none"
     id="polygon7026" />
  <polygon
     points="323.162,6.954 322.855,7.111 322.612,7.354 322.455,7.661 322.402,8.001 322.455,8.340 322.612,8.647 322.855,8.890 323.162,9.047 323.502,9.101 323.841,9.047 324.148,8.890 324.391,8.647 324.548,8.340 324.601,8.001 324.548,7.661 324.391,7.354 324.148,7.111 323.841,6.954 323.502,6.901"
     style="fill:none;stroke-width:0.050000mm;stroke:black"
     id="polygon7028" />
  <polygon
     points="217.995,6.954 217.688,7.111 217.445,7.354 217.288,7.661 217.234,8.001 217.288,8.340 217.445,8.647 217.688,8.890 217.995,9.047 218.334,9.101 218.674,9.047 218.981,8.890 219.224,8.647 219.381,8.340 219.434,8.001 219.381,7.661 219.224,7.354 218.981,7.111 218.674,6.954 218.334,6.901"
     style="fill:none;stroke-width:0.050000mm;stroke:black"
     id="polygon7030" />
  <polygon
     points="112.828,6.954 112.521,7.111 112.278,7.354 112.121,7.661 112.067,8.001 112.121,8.340 112.278,8.647 112.521,8.890 112.828,9.047 113.167,9.101 113.507,9.047 113.814,8.890 114.057,8.647 114.214,8.340 114.268,8.001 114.214,7.661 114.057,7.354 113.814,7.111 113.507,6.954 113.167,6.901"
     style="fill:none;stroke-width:0.050000mm;stroke:black"
     id="polygon7032" />
  <polygon
     points="7.661,6.954 7.354,7.111 7.111,7.354 6.954,7.661 6.901,8.001 6.954,8.340 7.111,8.647 7.354,8.890 7.661,9.047 8.001,9.101 8.340,9.047 8.647,8.890 8.890,8.647 9.047,8.340 9.101,8.001 9.047,7.661 8.890,7.354 8.647,7.111 8.340,6.954 8.001,6.901"
     style="fill:none;stroke-width:0.050000mm;stroke:black"
     id="polygon7034" />
  <circle
     style="fill:none;stroke:#000000;stroke-width:0.191533;stroke-miterlimit:4;stroke-dasharray:none"
     id="path7605"
     cx="291.965"
     cy="60.956001"
     r="9.9042339" />
</svg>
