<?xml version="1.0" encoding="UTF-8" standalone="no"?>
<svg
   xmlns:dc="http://purl.org/dc/elements/1.1/"
   xmlns:cc="http://creativecommons.org/ns#"
   xmlns:rdf="http://www.w3.org/1999/02/22-rdf-syntax-ns#"
   xmlns:svg="http://www.w3.org/2000/svg"
   xmlns="http://www.w3.org/2000/svg"
   xmlns:sodipodi="http://sodipodi.sourceforge.net/DTD/sodipodi-0.dtd"
   xmlns:inkscape="http://www.inkscape.org/namespaces/inkscape"
   width="331.502mm"
   height="102.752mm"
   viewBox="0.000 0.000 331.502 102.752"
   version="1.1"
   id="svg865"
   sodipodi:docname="bottom_tap.svg"
   inkscape:version="1.0.2 (e86c8708, 2021-01-15)">
  <metadata
     id="metadata871">
    <rdf:RDF>
      <cc:Work
         rdf:about="">
        <dc:format>image/svg+xml</dc:format>
        <dc:type
           rdf:resource="http://purl.org/dc/dcmitype/StillImage" />
      </cc:Work>
    </rdf:RDF>
  </metadata>
  <defs
     id="defs869" />
  <sodipodi:namedview
     pagecolor="#ffffff"
     bordercolor="#666666"
     borderopacity="1"
     objecttolerance="10"
     gridtolerance="10"
     guidetolerance="10"
     inkscape:pageopacity="0"
     inkscape:pageshadow="2"
     inkscape:window-width="1680"
     inkscape:window-height="936"
     id="namedview867"
     showgrid="false"
     inkscape:zoom="0.87475587"
     inkscape:cx="626.4605"
     inkscape:cy="194.17701"
     inkscape:window-x="0"
     inkscape:window-y="25"
     inkscape:window-maximized="0"
     inkscape:current-layer="svg865" />
  <polygon
     points="324.002,5.001 324.198,5.008 324.393,5.031 324.585,5.070 324.774,5.123 324.958,5.191 325.136,5.273 325.308,5.369 325.471,5.478 325.625,5.599 325.769,5.733 325.903,5.877 326.024,6.031 326.133,6.194 326.229,6.366 326.311,6.544 326.379,6.728 326.432,6.917 326.471,7.109 326.494,7.304 326.502,7.501 326.502,95.252 326.494,95.448 326.471,95.643 326.432,95.835 326.379,96.024 326.311,96.208 326.229,96.386 326.133,96.558 326.024,96.721 325.903,96.875 325.769,97.019 325.625,97.153 325.471,97.274 325.308,97.383 325.136,97.479 324.958,97.561 324.774,97.629 324.585,97.682 324.393,97.721 324.198,97.744 324.001,97.752 7.501,97.752 7.304,97.744 7.109,97.721 6.917,97.682 6.728,97.629 6.544,97.561 6.366,97.479 6.194,97.383 6.031,97.274 5.877,97.153 5.733,97.019 5.599,96.875 5.478,96.721 5.369,96.558 5.273,96.386 5.191,96.208 5.123,96.024 5.070,95.835 5.031,95.643 5.008,95.448 5.000,95.251 5.001,7.501 5.008,7.304 5.031,7.109 5.070,6.917 5.123,6.728 5.191,6.544 5.273,6.366 5.369,6.194 5.478,6.031 5.599,5.877 5.733,5.733 5.877,5.599 6.031,5.478 6.194,5.369 6.366,5.273 6.544,5.191 6.728,5.123 6.917,5.070 7.109,5.031 7.304,5.008 7.501,5.000"
     style="fill:none;stroke-width:0.050000mm;stroke:black"
     id="polygon847" />
  <polygon
     points="323.254,93.991 323.031,94.104 322.854,94.281 322.741,94.504 322.702,94.752 322.741,94.999 322.854,95.222 323.031,95.399 323.254,95.512 323.502,95.552 323.749,95.512 323.972,95.399 324.149,95.222 324.262,94.999 324.301,94.752 324.262,94.504 324.149,94.281 323.972,94.104 323.749,93.991 323.502,93.952"
     style="fill:none;stroke-width:0.050000mm;stroke:black"
     id="polygon849" />
  <polygon
     points="218.087,93.991 217.864,94.104 217.687,94.281 217.574,94.504 217.534,94.752 217.574,94.999 217.687,95.222 217.864,95.399 218.087,95.512 218.334,95.552 218.582,95.512 218.805,95.399 218.982,95.222 219.095,94.999 219.135,94.752 219.095,94.504 218.982,94.281 218.805,94.104 218.582,93.991 218.334,93.952"
     style="fill:none;stroke-width:0.050000mm;stroke:black"
     id="polygon851" />
  <polygon
     points="112.920,93.991 112.697,94.104 112.520,94.281 112.407,94.504 112.367,94.752 112.407,94.999 112.520,95.222 112.697,95.399 112.920,95.512 113.167,95.552 113.415,95.512 113.638,95.399 113.815,95.222 113.928,94.999 113.967,94.752 113.928,94.504 113.815,94.281 113.638,94.104 113.415,93.991 113.167,93.952"
     style="fill:none;stroke-width:0.050000mm;stroke:black"
     id="polygon853" />
  <polygon
     points="7.753,93.991 7.530,94.104 7.353,94.281 7.240,94.504 7.200,94.752 7.240,94.999 7.353,95.222 7.530,95.399 7.753,95.512 8.000,95.552 8.248,95.512 8.471,95.399 8.648,95.222 8.761,94.999 8.800,94.752 8.761,94.504 8.648,94.281 8.471,94.104 8.248,93.991 8.001,93.952"
     style="fill:none;stroke-width:0.050000mm;stroke:black"
     id="polygon855" />
  <polygon
     points="323.254,7.240 323.031,7.353 322.854,7.530 322.741,7.753 322.702,8.000 322.741,8.248 322.854,8.471 323.031,8.648 323.254,8.761 323.502,8.800 323.749,8.761 323.972,8.648 324.149,8.471 324.262,8.248 324.301,8.001 324.262,7.753 324.149,7.530 323.972,7.353 323.749,7.240 323.502,7.201"
     style="fill:none;stroke-width:0.050000mm;stroke:black"
     id="polygon857" />
  <polygon
     points="218.087,7.240 217.864,7.353 217.687,7.530 217.574,7.753 217.534,8.000 217.574,8.248 217.687,8.471 217.864,8.648 218.087,8.761 218.334,8.800 218.582,8.761 218.805,8.648 218.982,8.471 219.095,8.248 219.135,8.001 219.095,7.753 218.982,7.530 218.805,7.353 218.582,7.240 218.334,7.201"
     style="fill:none;stroke-width:0.050000mm;stroke:black"
     id="polygon859" />
  <polygon
     points="112.920,7.240 112.697,7.353 112.520,7.530 112.407,7.753 112.367,8.000 112.407,8.248 112.520,8.471 112.697,8.648 112.920,8.761 113.167,8.800 113.415,8.761 113.638,8.648 113.815,8.471 113.928,8.248 113.967,8.001 113.928,7.753 113.815,7.530 113.638,7.353 113.415,7.240 113.167,7.201"
     style="fill:none;stroke-width:0.050000mm;stroke:black"
     id="polygon861" />
  <polygon
     points="7.753,7.240 7.530,7.353 7.353,7.530 7.240,7.753 7.200,8.000 7.240,8.248 7.353,8.471 7.530,8.648 7.753,8.761 8.000,8.800 8.248,8.761 8.471,8.648 8.648,8.471 8.761,8.248 8.800,8.001 8.761,7.753 8.648,7.530 8.471,7.353 8.248,7.240 8.001,7.201"
     style="fill:none;stroke-width:0.050000mm;stroke:black"
     id="polygon863" />
  <circle
     id="path124"
     cx="14.401476"
     cy="29.941475"
     r="1.94102"
     style="fill:none;stroke:#000000;stroke-width:0.188912;stroke-miterlimit:4;stroke-dasharray:none;stroke-opacity:1" />
</svg>
