<?xml version="1.0" encoding="UTF-8" standalone="no"?>
<svg
   xmlns:dc="http://purl.org/dc/elements/1.1/"
   xmlns:cc="http://creativecommons.org/ns#"
   xmlns:rdf="http://www.w3.org/1999/02/22-rdf-syntax-ns#"
   xmlns:svg="http://www.w3.org/2000/svg"
   xmlns="http://www.w3.org/2000/svg"
   xmlns:sodipodi="http://sodipodi.sourceforge.net/DTD/sodipodi-0.dtd"
   xmlns:inkscape="http://www.inkscape.org/namespaces/inkscape"
   width="321.69098mm"
   height="92.940979mm"
   viewBox="0 0 321.69098 92.94098"
   version="1.1"
   id="svg1588"
   sodipodi:docname="switch_2_1u.svg"
   inkscape:version="1.0.2 (e86c8708, 2021-01-15)">
  <sodipodi:namedview
     pagecolor="#ffffff"
     bordercolor="#666666"
     borderopacity="1"
     objecttolerance="10"
     gridtolerance="10"
     guidetolerance="10"
     inkscape:pageopacity="0"
     inkscape:pageshadow="2"
     inkscape:window-width="1680"
     inkscape:window-height="936"
     id="namedview2781"
     showgrid="false"
     inkscape:document-units="mm"
     inkscape:zoom="0.87475587"
     inkscape:cx="607.91998"
     inkscape:cy="175.63649"
     inkscape:window-x="0"
     inkscape:window-y="25"
     inkscape:window-maximized="0"
     inkscape:current-layer="svg1588"
     inkscape:document-rotation="0"
     fit-margin-top="0"
     fit-margin-left="0"
     fit-margin-right="0"
     fit-margin-bottom="0" />
  <metadata
     id="metadata1594">
    <rdf:RDF>
      <cc:Work
         rdf:about="">
        <dc:format>image/svg+xml</dc:format>
        <dc:type
           rdf:resource="http://purl.org/dc/dcmitype/StillImage" />
        <dc:title></dc:title>
      </cc:Work>
    </rdf:RDF>
  </metadata>
  <defs
     id="defs1592" />
  <polygon
     points="325.308,5.369 325.471,5.478 325.625,5.599 325.769,5.733 325.903,5.877 326.024,6.031 326.133,6.194 326.229,6.366 326.311,6.544 326.379,6.728 326.432,6.917 326.471,7.109 326.494,7.304 326.502,7.501 326.502,95.252 326.494,95.448 326.471,95.643 326.432,95.835 326.379,96.024 326.311,96.208 326.229,96.386 326.133,96.558 326.024,96.721 325.903,96.875 325.769,97.019 325.625,97.153 325.471,97.274 325.308,97.383 325.136,97.479 324.958,97.561 324.774,97.629 324.585,97.682 324.393,97.721 324.198,97.744 324.001,97.752 7.501,97.752 7.304,97.744 7.109,97.721 6.917,97.682 6.728,97.629 6.544,97.561 6.366,97.479 6.194,97.383 6.031,97.274 5.877,97.153 5.733,97.019 5.599,96.875 5.478,96.721 5.369,96.558 5.273,96.386 5.191,96.208 5.123,96.024 5.07,95.835 5.031,95.643 5.008,95.448 5,95.251 5.001,7.501 5.008,7.304 5.031,7.109 5.07,6.917 5.123,6.728 5.191,6.544 5.273,6.366 5.369,6.194 5.478,6.031 5.599,5.877 5.733,5.733 5.877,5.599 6.031,5.478 6.194,5.369 6.366,5.273 6.544,5.191 6.728,5.123 6.917,5.07 7.109,5.031 7.304,5.008 7.501,5 324.002,5.001 324.198,5.008 324.393,5.031 324.585,5.07 324.774,5.123 324.958,5.191 325.136,5.273 "
     style="fill:none;stroke:#000000;stroke-width:0.05mm"
     id="polygon1454"
     transform="translate(-4.9055118,-4.9055118)" />
  <polygon
     points="322.855,95.641 323.162,95.798 323.502,95.852 323.841,95.798 324.148,95.641 324.391,95.398 324.548,95.091 324.601,94.752 324.548,94.412 324.391,94.105 324.148,93.862 323.841,93.705 323.502,93.652 323.162,93.705 322.855,93.862 322.612,94.105 322.455,94.412 322.402,94.752 322.455,95.091 322.612,95.398 "
     style="fill:none;stroke:#000000;stroke-width:0.05mm"
     id="polygon1456"
     transform="translate(-4.9055118,-4.9055118)" />
  <polygon
     points="217.688,95.641 217.995,95.798 218.334,95.852 218.674,95.798 218.981,95.641 219.224,95.398 219.381,95.091 219.434,94.752 219.381,94.412 219.224,94.105 218.981,93.862 218.674,93.705 218.334,93.652 217.995,93.705 217.688,93.862 217.445,94.105 217.288,94.412 217.234,94.752 217.288,95.091 217.445,95.398 "
     style="fill:none;stroke:#000000;stroke-width:0.05mm"
     id="polygon1458"
     transform="translate(-4.9055118,-4.9055118)" />
  <polygon
     points="112.521,95.641 112.828,95.798 113.167,95.852 113.507,95.798 113.814,95.641 114.057,95.398 114.214,95.091 114.268,94.752 114.214,94.412 114.057,94.105 113.814,93.862 113.507,93.705 113.167,93.652 112.828,93.705 112.521,93.862 112.278,94.105 112.121,94.412 112.067,94.752 112.121,95.091 112.278,95.398 "
     style="fill:none;stroke:#000000;stroke-width:0.05mm"
     id="polygon1460"
     transform="translate(-4.9055118,-4.9055118)" />
  <polygon
     points="7.354,95.641 7.661,95.798 8.001,95.852 8.34,95.798 8.647,95.641 8.89,95.398 9.047,95.091 9.101,94.752 9.047,94.412 8.89,94.105 8.647,93.862 8.34,93.705 8.001,93.652 7.661,93.705 7.354,93.862 7.111,94.105 6.954,94.412 6.901,94.752 6.954,95.091 7.111,95.398 "
     style="fill:none;stroke:#000000;stroke-width:0.05mm"
     id="polygon1462"
     transform="translate(-4.9055118,-4.9055118)" />
  <polygon
     points="281.451,88.251 282.251,88.251 282.251,89.251 296.251,89.251 296.251,88.251 297.051,88.251 297.051,85.151 296.251,85.151 296.251,79.351 297.051,79.351 297.051,76.251 296.251,76.251 296.251,75.251 282.251,75.251 282.251,76.251 281.451,76.251 281.451,79.351 282.251,79.351 282.251,85.151 281.451,85.151 "
     style="fill:none;stroke:#000000;stroke-width:0.05mm"
     id="polygon1464"
     transform="translate(-4.9055118,-4.9055118)" />
  <polygon
     points="262.451,88.251 263.251,88.251 263.251,89.251 277.251,89.251 277.251,88.251 278.051,88.251 278.051,85.151 277.251,85.151 277.251,79.351 278.051,79.351 278.051,76.251 277.251,76.251 277.251,75.251 263.251,75.251 263.251,76.251 262.451,76.251 262.451,79.351 263.251,79.351 263.251,85.151 262.451,85.151 "
     style="fill:none;stroke:#000000;stroke-width:0.05mm"
     id="polygon1466"
     transform="translate(-4.9055118,-4.9055118)" />
  <polygon
     points="243.451,88.251 244.251,88.251 244.251,89.251 258.251,89.251 258.251,88.251 259.051,88.251 259.051,85.151 258.251,85.151 258.251,79.351 259.051,79.351 259.051,76.251 258.251,76.251 258.251,75.251 244.251,75.251 244.251,76.251 243.451,76.251 243.451,79.351 244.251,79.351 244.251,85.151 243.451,85.151 "
     style="fill:none;stroke:#000000;stroke-width:0.05mm"
     id="polygon1468"
     transform="translate(-4.9055118,-4.9055118)" />
  <polygon
     points="305.201,83.501 306.001,83.501 306.001,84.501 320.001,84.501 320.001,83.501 320.801,83.501 320.801,80.401 320.001,80.401 320.001,74.601 320.801,74.601 320.801,71.501 320.001,71.501 320.001,70.501 306.001,70.501 306.001,71.501 305.201,71.501 305.201,74.601 306.001,74.601 306.001,80.401 305.201,80.401 "
     style="fill:none;stroke:#000000;stroke-width:0.05mm"
     id="polygon1470"
     transform="translate(-4.9055118,-4.9055118)" />
  <polygon
     points="219.701,83.501 220.501,83.501 220.501,84.501 234.501,84.501 234.501,83.501 235.301,83.501 235.301,80.401 234.501,80.401 234.501,74.601 235.301,74.601 235.301,71.501 234.501,71.501 234.501,70.501 220.501,70.501 220.501,71.501 219.701,71.501 219.701,74.601 220.501,74.601 220.501,80.401 219.701,80.401 "
     style="fill:none;stroke:#000000;stroke-width:0.05mm"
     id="polygon1472"
     transform="translate(-4.9055118,-4.9055118)" />
  <polygon
     points="200.701,83.501 201.501,83.501 201.501,84.501 215.501,84.501 215.501,83.501 216.301,83.501 216.301,80.401 215.501,80.401 215.501,74.601 216.301,74.601 216.301,71.501 215.501,71.501 215.501,70.501 201.501,70.501 201.501,71.501 200.701,71.501 200.701,74.601 201.501,74.601 201.501,80.401 200.701,80.401 "
     style="fill:none;stroke:#000000;stroke-width:0.05mm"
     id="polygon1474"
     transform="translate(-4.9055118,-4.9055118)" />
  <polygon
     points="179.326,83.501 180.126,83.501 180.126,84.501 194.126,84.501 194.126,83.501 194.926,83.501 194.926,80.401 194.126,80.401 194.126,74.601 194.926,74.601 194.926,71.501 194.126,71.501 194.126,70.501 180.126,70.501 180.126,71.501 179.326,71.501 179.326,74.601 180.126,74.601 180.126,80.401 179.326,80.401 "
     style="fill:none;stroke:#000000;stroke-width:0.05mm"
     id="polygon1476"
     transform="translate(-4.9055118,-4.9055118)" />
  <polygon
     points="157.951,83.501 158.751,83.501 158.751,84.501 172.751,84.501 172.751,83.501 173.551,83.501 173.551,80.401 172.751,80.401 172.751,74.601 173.551,74.601 173.551,71.501 172.751,71.501 172.751,70.501 158.751,70.501 158.751,71.501 157.951,71.501 157.951,74.601 158.751,74.601 158.751,80.401 157.951,80.401 "
     style="fill:none;stroke:#000000;stroke-width:0.05mm"
     id="polygon1478"
     transform="translate(-4.9055118,-4.9055118)" />
  <polygon
     points="138.951,83.501 139.751,83.501 139.751,84.501 153.751,84.501 153.751,83.501 154.551,83.501 154.551,80.401 153.751,80.401 153.751,74.601 154.551,74.601 154.551,71.501 153.751,71.501 153.751,70.501 139.751,70.501 139.751,71.501 138.951,71.501 138.951,74.601 139.751,74.601 139.751,80.401 138.951,80.401 "
     style="fill:none;stroke:#000000;stroke-width:0.05mm"
     id="polygon1480"
     transform="translate(-4.9055118,-4.9055118)" />
  <polygon
     points="119.951,83.501 120.751,83.501 120.751,84.501 134.751,84.501 134.751,83.501 135.551,83.501 135.551,80.401 134.751,80.401 134.751,74.601 135.551,74.601 135.551,71.501 134.751,71.501 134.751,70.501 120.751,70.501 120.751,71.501 119.951,71.501 119.951,74.601 120.751,74.601 120.751,80.401 119.951,80.401 "
     style="fill:none;stroke:#000000;stroke-width:0.05mm"
     id="polygon1482"
     transform="translate(-4.9055118,-4.9055118)" />
  <polygon
     points="100.951,83.501 101.751,83.501 101.751,84.501 115.751,84.501 115.751,83.501 116.551,83.501 116.551,80.401 115.751,80.401 115.751,74.601 116.551,74.601 116.551,71.501 115.751,71.501 115.751,70.501 101.751,70.501 101.751,71.501 100.951,71.501 100.951,74.601 101.751,74.601 101.751,80.401 100.951,80.401 "
     style="fill:none;stroke:#000000;stroke-width:0.05mm"
     id="polygon1484"
     transform="translate(-4.9055118,-4.9055118)" />
  <polygon
     points="79.576,83.501 80.376,83.501 80.376,84.501 94.376,84.501 94.376,83.501 95.176,83.501 95.176,80.401 94.376,80.401 94.376,74.601 95.176,74.601 95.176,71.501 94.376,71.501 94.376,70.501 80.376,70.501 80.376,71.501 79.576,71.501 79.576,74.601 80.376,74.601 80.376,80.401 79.576,80.401 "
     style="fill:none;stroke:#000000;stroke-width:0.05mm"
     id="polygon1486"
     transform="translate(-4.9055118,-4.9055118)" />
  <polygon
     points="58.201,83.501 59.001,83.501 59.001,84.501 73.001,84.501 73.001,83.501 73.801,83.501 73.801,80.401 73.001,80.401 73.001,74.601 73.801,74.601 73.801,71.501 73.001,71.501 73.001,70.501 59.001,70.501 59.001,71.501 58.201,71.501 58.201,74.601 59.001,74.601 59.001,80.401 58.201,80.401 "
     style="fill:none;stroke:#000000;stroke-width:0.05mm"
     id="polygon1488"
     transform="translate(-4.9055118,-4.9055118)" />
  <polygon
     points="39.201,83.501 40.001,83.501 40.001,84.501 54.001,84.501 54.001,83.501 54.801,83.501 54.801,80.401 54.001,80.401 54.001,74.601 54.801,74.601 54.801,71.501 54.001,71.501 54.001,70.501 40.001,70.501 40.001,71.501 39.201,71.501 39.201,74.601 40.001,74.601 40.001,80.401 39.201,80.401 "
     style="fill:none;stroke:#000000;stroke-width:0.05mm"
     id="polygon1490"
     transform="translate(-4.9055118,-4.9055118)" />
  <polygon
     points="20.201,83.501 21.001,83.501 21.001,84.501 35.001,84.501 35.001,83.501 35.801,83.501 35.801,80.401 35.001,80.401 35.001,74.601 35.801,74.601 35.801,71.501 35.001,71.501 35.001,70.501 21.001,70.501 21.001,71.501 20.201,71.501 20.201,74.601 21.001,74.601 21.001,80.401 20.201,80.401 "
     style="fill:none;stroke:#000000;stroke-width:0.05mm"
     id="polygon1492"
     transform="translate(-4.9055118,-4.9055118)" />
  <polygon
     points="262.451,69.251 263.251,69.251 263.251,70.251 277.251,70.251 277.251,69.251 278.051,69.251 278.051,66.151 277.251,66.151 277.251,60.351 278.051,60.351 278.051,57.251 277.251,57.251 277.251,56.251 263.251,56.251 263.251,57.251 262.451,57.251 262.451,60.351 263.251,60.351 263.251,66.151 262.451,66.151 "
     style="fill:none;stroke:#000000;stroke-width:0.05mm"
     id="polygon1494"
     transform="translate(-4.9055118,-4.9055118)" />
  <polygon
     points="305.201,64.501 306.001,64.501 306.001,65.501 320.001,65.501 320.001,64.501 320.801,64.501 320.801,61.401 320.001,61.401 320.001,55.601 320.801,55.601 320.801,52.501 320.001,52.501 320.001,51.501 306.001,51.501 306.001,52.501 305.201,52.501 305.201,55.601 306.001,55.601 306.001,61.401 305.201,61.401 "
     style="fill:none;stroke:#000000;stroke-width:0.05mm"
     id="polygon1496"
     transform="translate(-4.9055118,-4.9055118)" />
  <polygon
     points="236.326,64.501 237.126,64.501 237.126,65.501 251.126,65.501 251.126,64.501 251.926,64.501 251.926,61.401 251.126,61.401 251.126,55.601 251.926,55.601 251.926,52.501 251.126,52.501 251.126,51.501 237.126,51.501 237.126,52.501 236.326,52.501 236.326,55.601 237.126,55.601 237.126,61.401 236.326,61.401 "
     style="fill:none;stroke:#000000;stroke-width:0.05mm"
     id="polygon1498"
     transform="translate(-4.9055118,-4.9055118)" />
  <polygon
     points="214.951,64.501 215.751,64.501 215.751,65.501 229.751,65.501 229.751,64.501 230.551,64.501 230.551,61.401 229.751,61.401 229.751,55.601 230.551,55.601 230.551,52.501 229.751,52.501 229.751,51.501 215.751,51.501 215.751,52.501 214.951,52.501 214.951,55.601 215.751,55.601 215.751,61.401 214.951,61.401 "
     style="fill:none;stroke:#000000;stroke-width:0.05mm"
     id="polygon1500"
     transform="translate(-4.9055118,-4.9055118)" />
  <polygon
     points="195.951,64.501 196.751,64.501 196.751,65.501 210.751,65.501 210.751,64.501 211.551,64.501 211.551,61.401 210.751,61.401 210.751,55.601 211.551,55.601 211.551,52.501 210.751,52.501 210.751,51.501 196.751,51.501 196.751,52.501 195.951,52.501 195.951,55.601 196.751,55.601 196.751,61.401 195.951,61.401 "
     style="fill:none;stroke:#000000;stroke-width:0.05mm"
     id="polygon1502"
     transform="translate(-4.9055118,-4.9055118)" />
  <polygon
     points="176.951,64.501 177.751,64.501 177.751,65.501 191.751,65.501 191.751,64.501 192.551,64.501 192.551,61.401 191.751,61.401 191.751,55.601 192.551,55.601 192.551,52.501 191.751,52.501 191.751,51.501 177.751,51.501 177.751,52.501 176.951,52.501 176.951,55.601 177.751,55.601 177.751,61.401 176.951,61.401 "
     style="fill:none;stroke:#000000;stroke-width:0.05mm"
     id="polygon1504"
     transform="translate(-4.9055118,-4.9055118)" />
  <polygon
     points="157.951,64.501 158.751,64.501 158.751,65.501 172.751,65.501 172.751,64.501 173.551,64.501 173.551,61.401 172.751,61.401 172.751,55.601 173.551,55.601 173.551,52.501 172.751,52.501 172.751,51.501 158.751,51.501 158.751,52.501 157.951,52.501 157.951,55.601 158.751,55.601 158.751,61.401 157.951,61.401 "
     style="fill:none;stroke:#000000;stroke-width:0.05mm"
     id="polygon1506"
     transform="translate(-4.9055118,-4.9055118)" />
  <polygon
     points="138.951,64.501 139.751,64.501 139.751,65.501 153.751,65.501 153.751,64.501 154.551,64.501 154.551,61.401 153.751,61.401 153.751,55.601 154.551,55.601 154.551,52.501 153.751,52.501 153.751,51.501 139.751,51.501 139.751,52.501 138.951,52.501 138.951,55.601 139.751,55.601 139.751,61.401 138.951,61.401 "
     style="fill:none;stroke:#000000;stroke-width:0.05mm"
     id="polygon1508"
     transform="translate(-4.9055118,-4.9055118)" />
  <polygon
     points="119.951,64.501 120.751,64.501 120.751,65.501 134.751,65.501 134.751,64.501 135.551,64.501 135.551,61.401 134.751,61.401 134.751,55.601 135.551,55.601 135.551,52.501 134.751,52.501 134.751,51.501 120.751,51.501 120.751,52.501 119.951,52.501 119.951,55.601 120.751,55.601 120.751,61.401 119.951,61.401 "
     style="fill:none;stroke:#000000;stroke-width:0.05mm"
     id="polygon1510"
     transform="translate(-4.9055118,-4.9055118)" />
  <polygon
     points="100.951,64.501 101.751,64.501 101.751,65.501 115.751,65.501 115.751,64.501 116.551,64.501 116.551,61.401 115.751,61.401 115.751,55.601 116.551,55.601 116.551,52.501 115.751,52.501 115.751,51.501 101.751,51.501 101.751,52.501 100.951,52.501 100.951,55.601 101.751,55.601 101.751,61.401 100.951,61.401 "
     style="fill:none;stroke:#000000;stroke-width:0.05mm"
     id="polygon1512"
     transform="translate(-4.9055118,-4.9055118)" />
  <polygon
     points="81.951,64.501 82.751,64.501 82.751,65.501 96.751,65.501 96.751,64.501 97.551,64.501 97.551,61.401 96.751,61.401 96.751,55.601 97.551,55.601 97.551,52.501 96.751,52.501 96.751,51.501 82.751,51.501 82.751,52.501 81.951,52.501 81.951,55.601 82.751,55.601 82.751,61.401 81.951,61.401 "
     style="fill:none;stroke:#000000;stroke-width:0.05mm"
     id="polygon1514"
     transform="translate(-4.9055118,-4.9055118)" />
  <polygon
     points="62.951,64.501 63.751,64.501 63.751,65.501 77.751,65.501 77.751,64.501 78.551,64.501 78.551,61.401 77.751,61.401 77.751,55.601 78.551,55.601 78.551,52.501 77.751,52.501 77.751,51.501 63.751,51.501 63.751,52.501 62.951,52.501 62.951,55.601 63.751,55.601 63.751,61.401 62.951,61.401 "
     style="fill:none;stroke:#000000;stroke-width:0.05mm"
     id="polygon1516"
     transform="translate(-4.9055118,-4.9055118)" />
  <polygon
     points="43.951,64.501 44.751,64.501 44.751,65.501 58.751,65.501 58.751,64.501 59.551,64.501 59.551,61.401 58.751,61.401 58.751,55.601 59.551,55.601 59.551,52.501 58.751,52.501 58.751,51.501 44.751,51.501 44.751,52.501 43.951,52.501 43.951,55.601 44.751,55.601 44.751,61.401 43.951,61.401 "
     style="fill:none;stroke:#000000;stroke-width:0.05mm"
     id="polygon1518"
     transform="translate(-4.9055118,-4.9055118)" />
  <polygon
     points="17.826,64.501 18.626,64.501 18.626,65.501 32.626,65.501 32.626,64.501 33.426,64.501 33.426,61.401 32.626,61.401 32.626,55.601 33.426,55.601 33.426,52.501 32.626,52.501 32.626,51.501 18.626,51.501 18.626,52.501 17.826,52.501 17.826,55.601 18.626,55.601 18.626,61.401 17.826,61.401 "
     style="fill:none;stroke:#000000;stroke-width:0.05mm"
     id="polygon1520"
     transform="translate(-4.9055118,-4.9055118)" />
  <polygon
     points="305.201,45.501 306.001,45.501 306.001,46.501 320.001,46.501 320.001,45.501 320.801,45.501 320.801,42.401 320.001,42.401 320.001,36.601 320.801,36.601 320.801,33.501 320.001,33.501 320.001,32.501 306.001,32.501 306.001,33.501 305.201,33.501 305.201,36.601 306.001,36.601 306.001,42.401 305.201,42.401 "
     style="fill:none;stroke:#000000;stroke-width:0.05mm"
     id="polygon1522"
     transform="translate(-4.9055118,-4.9055118)" />
  <polygon
     points="260.076,45.501 260.876,45.501 260.876,46.501 274.876,46.501 274.876,45.501 275.676,45.501 275.676,42.401 274.876,42.401 274.876,36.601 275.676,36.601 275.676,33.501 274.876,33.501 274.876,32.501 260.876,32.501 260.876,33.501 260.076,33.501 260.076,36.601 260.876,36.601 260.876,42.401 260.076,42.401 "
     style="fill:none;stroke:#000000;stroke-width:0.05mm"
     id="polygon1524"
     transform="translate(-4.9055118,-4.9055118)" />
  <polygon
     points="233.951,45.501 234.751,45.501 234.751,46.501 248.751,46.501 248.751,45.501 249.551,45.501 249.551,42.401 248.751,42.401 248.751,36.601 249.551,36.601 249.551,33.501 248.751,33.501 248.751,32.501 234.751,32.501 234.751,33.501 233.951,33.501 233.951,36.601 234.751,36.601 234.751,42.401 233.951,42.401 "
     style="fill:none;stroke:#000000;stroke-width:0.05mm"
     id="polygon1526"
     transform="translate(-4.9055118,-4.9055118)" />
  <polygon
     points="214.951,45.501 215.751,45.501 215.751,46.501 229.751,46.501 229.751,45.501 230.551,45.501 230.551,42.401 229.751,42.401 229.751,36.601 230.551,36.601 230.551,33.501 229.751,33.501 229.751,32.501 215.751,32.501 215.751,33.501 214.951,33.501 214.951,36.601 215.751,36.601 215.751,42.401 214.951,42.401 "
     style="fill:none;stroke:#000000;stroke-width:0.05mm"
     id="polygon1528"
     transform="translate(-4.9055118,-4.9055118)" />
  <polygon
     points="195.951,45.501 196.751,45.501 196.751,46.501 210.751,46.501 210.751,45.501 211.551,45.501 211.551,42.401 210.751,42.401 210.751,36.601 211.551,36.601 211.551,33.501 210.751,33.501 210.751,32.501 196.751,32.501 196.751,33.501 195.951,33.501 195.951,36.601 196.751,36.601 196.751,42.401 195.951,42.401 "
     style="fill:none;stroke:#000000;stroke-width:0.05mm"
     id="polygon1530"
     transform="translate(-4.9055118,-4.9055118)" />
  <polygon
     points="176.951,45.501 177.751,45.501 177.751,46.501 191.751,46.501 191.751,45.501 192.551,45.501 192.551,42.401 191.751,42.401 191.751,36.601 192.551,36.601 192.551,33.501 191.751,33.501 191.751,32.501 177.751,32.501 177.751,33.501 176.951,33.501 176.951,36.601 177.751,36.601 177.751,42.401 176.951,42.401 "
     style="fill:none;stroke:#000000;stroke-width:0.05mm"
     id="polygon1532"
     transform="translate(-4.9055118,-4.9055118)" />
  <polygon
     points="157.951,45.501 158.751,45.501 158.751,46.501 172.751,46.501 172.751,45.501 173.551,45.501 173.551,42.401 172.751,42.401 172.751,36.601 173.551,36.601 173.551,33.501 172.751,33.501 172.751,32.501 158.751,32.501 158.751,33.501 157.951,33.501 157.951,36.601 158.751,36.601 158.751,42.401 157.951,42.401 "
     style="fill:none;stroke:#000000;stroke-width:0.05mm"
     id="polygon1534"
     transform="translate(-4.9055118,-4.9055118)" />
  <polygon
     points="138.951,45.501 139.751,45.501 139.751,46.501 153.751,46.501 153.751,45.501 154.551,45.501 154.551,42.401 153.751,42.401 153.751,36.601 154.551,36.601 154.551,33.501 153.751,33.501 153.751,32.501 139.751,32.501 139.751,33.501 138.951,33.501 138.951,36.601 139.751,36.601 139.751,42.401 138.951,42.401 "
     style="fill:none;stroke:#000000;stroke-width:0.05mm"
     id="polygon1536"
     transform="translate(-4.9055118,-4.9055118)" />
  <polygon
     points="119.951,45.501 120.751,45.501 120.751,46.501 134.751,46.501 134.751,45.501 135.551,45.501 135.551,42.401 134.751,42.401 134.751,36.601 135.551,36.601 135.551,33.501 134.751,33.501 134.751,32.501 120.751,32.501 120.751,33.501 119.951,33.501 119.951,36.601 120.751,36.601 120.751,42.401 119.951,42.401 "
     style="fill:none;stroke:#000000;stroke-width:0.05mm"
     id="polygon1538"
     transform="translate(-4.9055118,-4.9055118)" />
  <polygon
     points="100.951,45.501 101.751,45.501 101.751,46.501 115.751,46.501 115.751,45.501 116.551,45.501 116.551,42.401 115.751,42.401 115.751,36.601 116.551,36.601 116.551,33.501 115.751,33.501 115.751,32.501 101.751,32.501 101.751,33.501 100.951,33.501 100.951,36.601 101.751,36.601 101.751,42.401 100.951,42.401 "
     style="fill:none;stroke:#000000;stroke-width:0.05mm"
     id="polygon1540"
     transform="translate(-4.9055118,-4.9055118)" />
  <polygon
     points="81.951,45.501 82.751,45.501 82.751,46.501 96.751,46.501 96.751,45.501 97.551,45.501 97.551,42.401 96.751,42.401 96.751,36.601 97.551,36.601 97.551,33.501 96.751,33.501 96.751,32.501 82.751,32.501 82.751,33.501 81.951,33.501 81.951,36.601 82.751,36.601 82.751,42.401 81.951,42.401 "
     style="fill:none;stroke:#000000;stroke-width:0.05mm"
     id="polygon1542"
     transform="translate(-4.9055118,-4.9055118)" />
  <polygon
     points="62.951,45.501 63.751,45.501 63.751,46.501 77.751,46.501 77.751,45.501 78.551,45.501 78.551,42.401 77.751,42.401 77.751,36.601 78.551,36.601 78.551,33.501 77.751,33.501 77.751,32.501 63.751,32.501 63.751,33.501 62.951,33.501 62.951,36.601 63.751,36.601 63.751,42.401 62.951,42.401 "
     style="fill:none;stroke:#000000;stroke-width:0.05mm"
     id="polygon1544"
     transform="translate(-4.9055118,-4.9055118)" />
  <polygon
     points="43.951,45.501 44.751,45.501 44.751,46.501 58.751,46.501 58.751,45.501 59.551,45.501 59.551,42.401 58.751,42.401 58.751,36.601 59.551,36.601 59.551,33.501 58.751,33.501 58.751,32.501 44.751,32.501 44.751,33.501 43.951,33.501 43.951,36.601 44.751,36.601 44.751,42.401 43.951,42.401 "
     style="fill:none;stroke:#000000;stroke-width:0.05mm"
     id="polygon1546"
     transform="translate(-4.9055118,-4.9055118)" />
  <polygon
     points="17.826,45.501 18.626,45.501 18.626,46.501 32.626,46.501 32.626,45.501 33.426,45.501 33.426,42.401 32.626,42.401 32.626,36.601 33.426,36.601 33.426,33.501 32.626,33.501 32.626,32.501 18.626,32.501 18.626,33.501 17.826,33.501 17.826,36.601 18.626,36.601 18.626,42.401 17.826,42.401 "
     style="fill:none;stroke:#000000;stroke-width:0.05mm"
     id="polygon1548"
     transform="translate(-4.9055118,-4.9055118)" />
  <polygon
     points="305.201,26.501 306.001,26.501 306.001,27.501 320.001,27.501 320.001,26.501 320.801,26.501 320.801,23.401 320.001,23.401 320.001,17.601 320.801,17.601 320.801,14.501 320.001,14.501 320.001,13.501 306.001,13.501 306.001,14.501 305.201,14.501 305.201,17.601 306.001,17.601 306.001,23.401 305.201,23.401 "
     style="fill:none;stroke:#000000;stroke-width:0.05mm"
     id="polygon1550"
     transform="translate(-4.9055118,-4.9055118)" />
  <polygon
     points="276.701,26.501 277.501,26.501 277.501,27.501 291.501,27.501 291.501,26.501 292.301,26.501 292.301,23.401 291.501,23.401 291.501,17.601 292.301,17.601 292.301,14.501 291.501,14.501 291.501,13.501 277.501,13.501 277.501,14.501 276.701,14.501 276.701,17.601 277.501,17.601 277.501,23.401 276.701,23.401 "
     style="fill:none;stroke:#000000;stroke-width:0.05mm"
     id="polygon1552"
     transform="translate(-4.9055118,-4.9055118)" />
  <polygon
     points="252.951,26.501 253.751,26.501 253.751,27.501 267.751,27.501 267.751,26.501 268.551,26.501 268.551,23.401 267.751,23.401 267.751,17.601 268.551,17.601 268.551,14.501 267.751,14.501 267.751,13.501 253.751,13.501 253.751,14.501 252.951,14.501 252.951,17.601 253.751,17.601 253.751,23.401 252.951,23.401 "
     style="fill:none;stroke:#000000;stroke-width:0.05mm"
     id="polygon1554"
     transform="translate(-4.9055118,-4.9055118)" />
  <polygon
     points="233.951,26.501 234.751,26.501 234.751,27.501 248.751,27.501 248.751,26.501 249.551,26.501 249.551,23.401 248.751,23.401 248.751,17.601 249.551,17.601 249.551,14.501 248.751,14.501 248.751,13.501 234.751,13.501 234.751,14.501 233.951,14.501 233.951,17.601 234.751,17.601 234.751,23.401 233.951,23.401 "
     style="fill:none;stroke:#000000;stroke-width:0.05mm"
     id="polygon1556"
     transform="translate(-4.9055118,-4.9055118)" />
  <polygon
     points="214.951,26.501 215.751,26.501 215.751,27.501 229.751,27.501 229.751,26.501 230.551,26.501 230.551,23.401 229.751,23.401 229.751,17.601 230.551,17.601 230.551,14.501 229.751,14.501 229.751,13.501 215.751,13.501 215.751,14.501 214.951,14.501 214.951,17.601 215.751,17.601 215.751,23.401 214.951,23.401 "
     style="fill:none;stroke:#000000;stroke-width:0.05mm"
     id="polygon1558"
     transform="translate(-4.9055118,-4.9055118)" />
  <polygon
     points="195.951,26.501 196.751,26.501 196.751,27.501 210.751,27.501 210.751,26.501 211.551,26.501 211.551,23.401 210.751,23.401 210.751,17.601 211.551,17.601 211.551,14.501 210.751,14.501 210.751,13.501 196.751,13.501 196.751,14.501 195.951,14.501 195.951,17.601 196.751,17.601 196.751,23.401 195.951,23.401 "
     style="fill:none;stroke:#000000;stroke-width:0.05mm"
     id="polygon1560"
     transform="translate(-4.9055118,-4.9055118)" />
  <polygon
     points="176.951,26.501 177.751,26.501 177.751,27.501 191.751,27.501 191.751,26.501 192.551,26.501 192.551,23.401 191.751,23.401 191.751,17.601 192.551,17.601 192.551,14.501 191.751,14.501 191.751,13.501 177.751,13.501 177.751,14.501 176.951,14.501 176.951,17.601 177.751,17.601 177.751,23.401 176.951,23.401 "
     style="fill:none;stroke:#000000;stroke-width:0.05mm"
     id="polygon1562"
     transform="translate(-4.9055118,-4.9055118)" />
  <polygon
     points="157.951,26.501 158.751,26.501 158.751,27.501 172.751,27.501 172.751,26.501 173.551,26.501 173.551,23.401 172.751,23.401 172.751,17.601 173.551,17.601 173.551,14.501 172.751,14.501 172.751,13.501 158.751,13.501 158.751,14.501 157.951,14.501 157.951,17.601 158.751,17.601 158.751,23.401 157.951,23.401 "
     style="fill:none;stroke:#000000;stroke-width:0.05mm"
     id="polygon1564"
     transform="translate(-4.9055118,-4.9055118)" />
  <polygon
     points="138.951,26.501 139.751,26.501 139.751,27.501 153.751,27.501 153.751,26.501 154.551,26.501 154.551,23.401 153.751,23.401 153.751,17.601 154.551,17.601 154.551,14.501 153.751,14.501 153.751,13.501 139.751,13.501 139.751,14.501 138.951,14.501 138.951,17.601 139.751,17.601 139.751,23.401 138.951,23.401 "
     style="fill:none;stroke:#000000;stroke-width:0.05mm"
     id="polygon1566"
     transform="translate(-4.9055118,-4.9055118)" />
  <polygon
     points="119.951,26.501 120.751,26.501 120.751,27.501 134.751,27.501 134.751,26.501 135.551,26.501 135.551,23.401 134.751,23.401 134.751,17.601 135.551,17.601 135.551,14.501 134.751,14.501 134.751,13.501 120.751,13.501 120.751,14.501 119.951,14.501 119.951,17.601 120.751,17.601 120.751,23.401 119.951,23.401 "
     style="fill:none;stroke:#000000;stroke-width:0.05mm"
     id="polygon1568"
     transform="translate(-4.9055118,-4.9055118)" />
  <polygon
     points="100.951,26.501 101.751,26.501 101.751,27.501 115.751,27.501 115.751,26.501 116.551,26.501 116.551,23.401 115.751,23.401 115.751,17.601 116.551,17.601 116.551,14.501 115.751,14.501 115.751,13.501 101.751,13.501 101.751,14.501 100.951,14.501 100.951,17.601 101.751,17.601 101.751,23.401 100.951,23.401 "
     style="fill:none;stroke:#000000;stroke-width:0.05mm"
     id="polygon1570"
     transform="translate(-4.9055118,-4.9055118)" />
  <polygon
     points="81.951,26.501 82.751,26.501 82.751,27.501 96.751,27.501 96.751,26.501 97.551,26.501 97.551,23.401 96.751,23.401 96.751,17.601 97.551,17.601 97.551,14.501 96.751,14.501 96.751,13.501 82.751,13.501 82.751,14.501 81.951,14.501 81.951,17.601 82.751,17.601 82.751,23.401 81.951,23.401 "
     style="fill:none;stroke:#000000;stroke-width:0.05mm"
     id="polygon1572"
     transform="translate(-4.9055118,-4.9055118)" />
  <polygon
     points="62.951,26.501 63.751,26.501 63.751,27.501 77.751,27.501 77.751,26.501 78.551,26.501 78.551,23.401 77.751,23.401 77.751,17.601 78.551,17.601 78.551,14.501 77.751,14.501 77.751,13.501 63.751,13.501 63.751,14.501 62.951,14.501 62.951,17.601 63.751,17.601 63.751,23.401 62.951,23.401 "
     style="fill:none;stroke:#000000;stroke-width:0.05mm"
     id="polygon1574"
     transform="translate(-4.9055118,-4.9055118)" />
  <polygon
     points="43.951,26.501 44.751,26.501 44.751,27.501 58.751,27.501 58.751,26.501 59.551,26.501 59.551,23.401 58.751,23.401 58.751,17.601 59.551,17.601 59.551,14.501 58.751,14.501 58.751,13.501 44.751,13.501 44.751,14.501 43.951,14.501 43.951,17.601 44.751,17.601 44.751,23.401 43.951,23.401 "
     style="fill:none;stroke:#000000;stroke-width:0.05mm"
     id="polygon1576"
     transform="translate(-4.9055118,-4.9055118)" />
  <polygon
     points="20.201,26.501 21.001,26.501 21.001,27.501 35.001,27.501 35.001,26.501 35.801,26.501 35.801,23.401 35.001,23.401 35.001,17.601 35.801,17.601 35.801,14.501 35.001,14.501 35.001,13.501 21.001,13.501 21.001,14.501 20.201,14.501 20.201,17.601 21.001,17.601 21.001,23.401 20.201,23.401 "
     style="fill:none;stroke:#000000;stroke-width:0.05mm"
     id="polygon1578"
     transform="translate(-4.9055118,-4.9055118)" />
  <polygon
     points="322.855,8.89 323.162,9.047 323.502,9.101 323.841,9.047 324.148,8.89 324.391,8.647 324.548,8.34 324.601,8.001 324.548,7.661 324.391,7.354 324.148,7.111 323.841,6.954 323.502,6.901 323.162,6.954 322.855,7.111 322.612,7.354 322.455,7.661 322.402,8.001 322.455,8.34 322.612,8.647 "
     style="fill:none;stroke:#000000;stroke-width:0.05mm"
     id="polygon1580"
     transform="translate(-4.9055118,-4.9055118)" />
  <polygon
     points="217.688,8.89 217.995,9.047 218.334,9.101 218.674,9.047 218.981,8.89 219.224,8.647 219.381,8.34 219.434,8.001 219.381,7.661 219.224,7.354 218.981,7.111 218.674,6.954 218.334,6.901 217.995,6.954 217.688,7.111 217.445,7.354 217.288,7.661 217.234,8.001 217.288,8.34 217.445,8.647 "
     style="fill:none;stroke:#000000;stroke-width:0.05mm"
     id="polygon1582"
     transform="translate(-4.9055118,-4.9055118)" />
  <polygon
     points="112.521,8.89 112.828,9.047 113.167,9.101 113.507,9.047 113.814,8.89 114.057,8.647 114.214,8.34 114.268,8.001 114.214,7.661 114.057,7.354 113.814,7.111 113.507,6.954 113.167,6.901 112.828,6.954 112.521,7.111 112.278,7.354 112.121,7.661 112.067,8.001 112.121,8.34 112.278,8.647 "
     style="fill:none;stroke:#000000;stroke-width:0.05mm"
     id="polygon1584"
     transform="translate(-4.9055118,-4.9055118)" />
  <polygon
     points="7.354,8.89 7.661,9.047 8.001,9.101 8.34,9.047 8.647,8.89 8.89,8.647 9.047,8.34 9.101,8.001 9.047,7.661 8.89,7.354 8.647,7.111 8.34,6.954 8.001,6.901 7.661,6.954 7.354,7.111 7.111,7.354 6.954,7.661 6.901,8.001 6.954,8.34 7.111,8.647 "
     style="fill:none;stroke:#000000;stroke-width:0.05mm"
     id="polygon1586"
     transform="translate(-4.9055118,-4.9055118)" />
  <path
     id="polygon873-0"
     style="fill:none;stroke:#000000;stroke-width:0.18891;stroke-miterlimit:4;stroke-dasharray:none"
     d="M 280.79794,61.824471 H 293.13346 V 49.788943 H 280.79794 Z" />
</svg>
